<svg xmlns="http://www.w3.org/2000/svg" width="130" height="109" viewBox="0 0 130 109"><path fill="#eba000" d="M119.57 11H103l8.28 88.16h8.29c4.57 0 8.28-3.7 8.28-8.27V19.27a8.28 8.28 0 0 0-8.28-8.27"/><path fill="#eca000" d="M54 10l11.04 96.43a8.28 8.28 0 0 0 8.29-8.27h37.96V10z"/><path fill="#fdd132" d="M10.28 10A8.28 8.28 0 0 0 2 18.27v71.62a8.28 8.28 0 0 0 8.28 8.27h46.25a8.28 8.28 0 0 0 8.28 8.27V10z"/><path fill="#a99e9b" d="M106 76l2.76 13.77h11.04v-8.26z"/><path fill="#c1b8b5" d="M59 76l5.52 20.11v1.93a8.3 8.3 0 0 1 8.28-8.27h34.79V76z"/><path fill="#d8d1d0" d="M10 82.27v8.26h46.24a8.3 8.3 0 0 1 8.29 8.27V74zM108.28 2L100 41.95l8.28 39.94h11.05V2z"/><path fill="#f0eceb" d="M73.57 2a8.3 8.3 0 0 0-8.29 8.27L57 50.21l8.28 38.02v1.93a8.3 8.3 0 0 1 8.29-8.26h35.2V53.66l-5.53-17.57 5.53-17.56V2z"/><path fill="#fff" d="M56.24 2H10v79.89h46.24a8.3 8.3 0 0 1 8.29 8.27V10.27A8.3 8.3 0 0 0 56.24 2"/><path d="M119.41 96.43h-6.21v4.13h6.21c5.71 0 10.35-4.64 10.35-10.33V18.6c0-4.99-3.56-9.17-8.28-10.13v-6.4c0-1.15-.93-2.07-2.07-2.07H73.16c-3.38 0-6.39 1.63-8.28 4.14A10.36 10.36 0 0 0 56.6 0H10.35C9.21 0 8.28.92 8.28 2.07v6.4A10.36 10.36 0 0 0 0 18.6v71.63c0 5.69 4.64 10.33 10.35 10.33h44.39a10.35 10.35 0 0 0 20.29 0h38.14v-4.13H73.16c-1.14 0-2.07.92-2.07 2.06a6.2 6.2 0 0 1-12.42 0c0-1.14-.93-2.06-2.07-2.06H10.35a6.22 6.22 0 0 1-6.21-6.2V18.6c0-2.7 1.73-4.99 4.14-5.85v69.21c0 1.14.93 2.07 2.07 2.07H56.6a6.21 6.21 0 0 1 6.21 6.2 10.3 10.3 0 0 0-6.21-2.07H10.35a2.07 2.07 0 0 0 0 4.13H56.6a6.21 6.21 0 0 1 6.21 6.2 2.07 2.07 0 0 0 4.14 0c0-3.42 2.79-6.2 6.21-6.2h46.25a2.07 2.07 0 1 0 0-4.13H73.16c-2.33 0-4.48.77-6.21 2.07 0-3.42 2.79-6.2 6.21-6.2h46.25c1.14 0 2.07-.93 2.07-2.07V12.75a6.22 6.22 0 0 1 4.14 5.85v71.63c0 3.41-2.79 6.2-6.21 6.2zm-52.46-86.1c0-3.42 2.79-6.2 6.21-6.2h44.18v75.76H73.16c-2.33 0-4.48.78-6.21 2.08zM12.42 79.89V4.13H56.6a6.21 6.21 0 0 1 6.21 6.2v71.64a10.3 10.3 0 0 0-6.21-2.08z"/><path d="M33.89 63H20.07a2.07 2.07 0 1 0 0 4.13h13.82a2.07 2.07 0 1 0 0-4.13M32.86 52H20.07a2.07 2.07 0 1 0 0 4.13h12.79a2.07 2.07 0 1 0 0-4.13M32.86 40H20.07a2.07 2.07 0 1 0 0 4.13h12.79a2.07 2.07 0 1 0 0-4.13M32.86 28H20.07a2.07 2.07 0 1 0 0 4.13h12.79a2.07 2.07 0 1 0 0-4.13M32.86 17H20.07a2.07 2.07 0 1 0 0 4.13h12.79a2.07 2.07 0 1 0 0-4.13M43.17 19.08a2.09 2.09 0 1 1-4.17 0 2.09 2.09 0 0 1 4.17 0M58.17 19.08a2.09 2.09 0 1 1-4.17 0 2.09 2.09 0 0 1 4.17 0M43.17 30.08a2.09 2.09 0 1 1-4.17 0 2.09 2.09 0 0 1 4.17 0M51.17 30.08a2.09 2.09 0 1 1-4.17 0 2.09 2.09 0 0 1 4.17 0M58.17 30.08a2.09 2.09 0 1 1-4.17 0 2.09 2.09 0 0 1 4.17 0M43.17 42.08a2.09 2.09 0 1 1-4.17 0 2.09 2.09 0 0 1 4.17 0M51.17 42.08a2.09 2.09 0 1 1-4.17 0 2.09 2.09 0 0 1 4.17 0M43.17 54.08a2.09 2.09 0 1 1-4.17 0 2.09 2.09 0 0 1 4.17 0M51.17 54.08a2.09 2.09 0 1 1-4.17 0 2.09 2.09 0 0 1 4.17 0M58.17 54.08a2.09 2.09 0 1 1-4.17 0 2.09 2.09 0 0 1 4.17 0M43.17 65.08a2.09 2.09 0 1 1-4.17 0 2.09 2.09 0 0 1 4.17 0M51.17 65.08a2.09 2.09 0 1 1-4.17 0 2.09 2.09 0 0 1 4.17 0M58.17 65.08a2.09 2.09 0 1 1-4.17 0 2.09 2.09 0 0 1 4.17 0M80.17 19.08a2.09 2.09 0 1 1-4.17 0 2.09 2.09 0 0 1 4.17 0M80.17 30.08a2.09 2.09 0 1 1-4.17 0 2.09 2.09 0 0 1 4.17 0M87.17 30.08a2.09 2.09 0 1 1-4.17 0 2.09 2.09 0 0 1 4.17 0M87.17 19.08a2.09 2.09 0 1 1-4.17 0 2.09 2.09 0 0 1 4.17 0M94.17 30.08a2.09 2.09 0 1 1-4.17 0 2.09 2.09 0 0 1 4.17 0M80.17 42.08a2.09 2.09 0 1 1-4.17 0 2.09 2.09 0 0 1 4.17 0M87.17 42.08a2.09 2.09 0 1 1-4.17 0 2.09 2.09 0 0 1 4.17 0M80.17 54.08a2.09 2.09 0 1 1-4.17 0 2.09 2.09 0 0 1 4.17 0M94.17 54.08a2.09 2.09 0 1 1-4.17 0 2.09 2.09 0 0 1 4.17 0M94.17 42.08a2.09 2.09 0 1 1-4.17 0 2.09 2.09 0 0 1 4.17 0M80.17 65.08a2.09 2.09 0 1 1-4.17 0 2.09 2.09 0 0 1 4.17 0M87.17 65.08a2.09 2.09 0 1 1-4.17 0 2.09 2.09 0 0 1 4.17 0M94.17 65.08a2.09 2.09 0 1 1-4.17 0 2.09 2.09 0 0 1 4.17 0"/></svg>