<svg xmlns="http://www.w3.org/2000/svg" width="225.98" height="47.18" viewBox="0 0 225.98 47.18"><path fill="#00adee" d="M55.98 11.6h6.92c.9 0 1.82.06 2.75.21.92.15 1.75.46 2.49.93a5.47 5.47 0 0 1 1.8 1.95c.46.83.69 1.94.69 3.31 0 1.23-.36 2.3-1.08 3.22a5.37 5.37 0 0 1-3.22 1.81v.07a6.6 6.6 0 0 1 2.17.56 5.36 5.36 0 0 1 2.79 3.07c.26.71.39 1.48.39 2.33 0 1.4-.26 2.53-.8 3.41a6.11 6.11 0 0 1-2 2.07c-.8.5-1.67.85-2.61 1.03-.93.18-1.81.27-2.62.27h-7.67zm2.24 10.47h4.65c1.15 0 2.09-.14 2.8-.43a4.88 4.88 0 0 0 1.7-1.04c.4-.4.68-.85.82-1.32.14-.47.2-.9.2-1.28a4.7 4.7 0 0 0-.42-2.1 3.48 3.48 0 0 0-1.14-1.35 4.6 4.6 0 0 0-1.66-.7c-.63-.14-1.3-.2-2-.2h-4.95zm0 11.72h5.12a8.7 8.7 0 0 0 3.17-.48c.8-.32 1.42-.72 1.85-1.2.43-.48.72-.99.87-1.53.14-.53.22-1.02.22-1.45a4.5 4.5 0 0 0-1.84-3.86 5.3 5.3 0 0 0-1.84-.87 8.27 8.27 0 0 0-2.1-.27h-5.45zm21.37-11.5h4.75c1.17 0 2.13-.16 2.86-.46a4.59 4.59 0 0 0 1.7-1.09c.42-.44.7-.9.85-1.4.14-.5.22-.97.22-1.38 0-.4-.08-.87-.22-1.37-.15-.5-.43-.97-.84-1.4a4.6 4.6 0 0 0-1.71-1.1 7.67 7.67 0 0 0-2.86-.44h-4.75zm-2.24-10.7h6.3l1.3.03c.54.03 1.13.1 1.76.21.63.11 1.28.3 1.93.55a5.4 5.4 0 0 1 3.06 2.91c.34.73.5 1.62.5 2.67a5.53 5.53 0 0 1-2.08 4.71c-.6.47-1.26.82-2 1.05-.71.22-1.4.38-2.05.48l6.98 11.64H90.5l-6.75-11.5h-4.17v11.5h-2.24zm27.47 0h2.3l10.12 24.25h-2.51l-2.62-6.44H99.4l-2.72 6.44h-2.34zm1.05 2.47l-5.6 13.3h11.03zm14.83-2.47h2.23v24.25h-2.23zm8.8 24.25h2.25V14.6h.07l14.62 21.24h2.88V11.6h-2.24v21.24h-.06L132.4 11.6h-2.9z"/><path fill="#231f20" d="M156.66 30.4a5.35 5.35 0 0 0 2.26 1.96c.9.42 1.85.63 2.83.63.54 0 1.09-.08 1.66-.25a5.08 5.08 0 0 0 1.54-.78c.47-.34.84-.76 1.14-1.26.29-.5.44-1.09.44-1.75 0-.94-.3-1.65-.88-2.14a7.64 7.64 0 0 0-2.2-1.23c-.86-.34-1.81-.65-2.84-.96a11.51 11.51 0 0 1-2.85-1.29 7 7 0 0 1-2.2-2.2 6.98 6.98 0 0 1-.87-3.76 6.4 6.4 0 0 1 1.9-4.45 7.94 7.94 0 0 1 2.53-1.66 9.25 9.25 0 0 1 3.7-.67c1.32 0 2.58.18 3.78.55a6.44 6.44 0 0 1 3.15 2.22l-2.64 2.44a4.4 4.4 0 0 0-1.73-1.54 5.45 5.45 0 0 0-2.55-.59c-.9 0-1.65.12-2.25.36-.6.24-1.08.55-1.44.93-.37.37-.62.78-.77 1.21-.14.44-.22.84-.22 1.2 0 1.03.3 1.82.88 2.37.59.54 1.32 1 2.19 1.33.87.34 1.82.65 2.85.93 1.03.27 1.98.65 2.85 1.14.87.5 1.6 1.16 2.19 2 .59.82.88 1.97.88 3.43a7.05 7.05 0 0 1-5.09 6.99c-1.02.34-2.1.51-3.25.51-1.54 0-3-.27-4.38-.82a7.2 7.2 0 0 1-3.3-2.53zM174.98 11.6h3.26v17.67h-3.26z"/><path fill="#fec331" d="M177.22 36.11c-.61 0-1.14-.22-1.58-.67a2.17 2.17 0 0 1-.66-1.59c0-.62.22-1.15.66-1.59.44-.45.97-.67 1.58-.67.6 0 1.13.22 1.58.67.44.44.66.97.66 1.6 0 .61-.22 1.14-.66 1.58-.45.45-.97.67-1.58.67z"/><path fill="#231f20" d="M183.98 11.6h8.38c1.69 0 3.18.18 4.46.57 1.28.4 2.38.91 3.32 1.56s1.72 1.4 2.34 2.24a12.24 12.24 0 0 1 2.26 5.28 12.4 12.4 0 0 1-.61 6.97 11.43 11.43 0 0 1-2.51 3.87 12.29 12.29 0 0 1-4.12 2.72 14.57 14.57 0 0 1-5.68 1.03h-7.84zm3.26 21.16h4.1c1.38 0 2.69-.19 3.92-.57a9.44 9.44 0 0 0 3.24-1.69 8.22 8.22 0 0 0 2.2-2.83c.54-1.13.82-2.45.82-3.95 0-.78-.13-1.69-.38-2.73a8.36 8.36 0 0 0-1.4-2.96 8.34 8.34 0 0 0-2.87-2.38c-1.22-.65-2.8-.98-4.75-.98h-4.88zm22.42 3.08h16.1v-3.08h-12.85v-7.78h11.4V21.9h-11.4v-7.23h12.25V11.6h-15.5z"/><path fill="none" stroke="#231f20" stroke-miterlimit="50" stroke-width="2" d="M23.1 24.22l-.04 9.9s.67 7.75-8.12 9c-8.31 1.17-9.6-1.13-9.26-2.33.16-.58 1-1.36.82-2-.18-.64-2.47-1.82-2.05-2.5 0 0 .87-.94.82-1.32-.06-.4-1.1-.69-1.2-1.07-.13-.47.66-1.7.48-2.37-.18-.65-3.37-1.77-3.52-2.62-.11-.68 0-.92 0-.92 1.17-1.96 3.64-3.6 4-5.03.36-1.42.4-4.6.36-7.66-.05-3.24 1.5-8.16 7.05-11.46 6.48-3.87 17.12-1.58 17.12-1.58s8.23 1.67 11.63 8.84c3.27 6.9 1.15 12.1-.84 15.61a47.59 47.59 0 0 0-2.74 5.64c-.48 1.37-.77 5.83-.48 7.08.3 1.24 1.38 7.01 1.38 7.01"/><path fill="#fcc232" d="M39.28 21.65c0-1.4-.52-2.66-1.36-3.64a5.58 5.58 0 0 0-4.33-8.94 5.6 5.6 0 0 0-8.83-3.36 5.6 5.6 0 0 0-7.58.81 5.58 5.58 0 0 0-6.9 6.11 5.56 5.56 0 0 0 4.23 10.3 5.9 5.9 0 0 0 8.26 1.44 5.88 5.88 0 1 0 10.97 2.84 5.58 5.58 0 0 0 5.54-5.56"/><path fill="none" stroke="#fefefe" stroke-miterlimit="50" d="M11.98 14.6a2.76 2.76 0 1 1 0 5.51M20.6 7.6a2.75 2.75 0 0 1-1.53 2.62 2.8 2.8 0 0 1-3.1-.44M17.98 20.1a2.77 2.77 0 0 1-3-2.5M19.63 15s1.68-2.84-.65-4.4M19.98 19.56s-.08-3.6 3.43-2.37c0 0 .82-3.38 3.63-2.29 0 0 2.1-2.6 4.6-.47M24.98 24.14s3.24 1.8 4.25-1.55M29.17 26.9s.46-1.95-1.2-3.3M28.98 19.93s.7-1.9 2.3-2c1.6-.1 2.77 1.15 4.29.52 1.52-.62 1.36-1.86 1.36-1.86M35.97 21.8s-3.45-.08-2.94-3.2"/></svg>