<svg xmlns="http://www.w3.org/2000/svg" width="108" height="98" viewBox="0 0 108 98"><path fill="#def9ff" d="M104.29 91.21a2.2 2.2 0 0 0 2.2-2.21v5.15a2.2 2.2 0 0 1-2.2 2.21H4.2A2.2 2.2 0 0 1 2 94.15V89a2.2 2.2 0 0 0 2.2 2.21z"/><path fill="#abecff" d="M104.16 85.34H4.33A2.34 2.34 0 0 1 2 83v5.95a2.2 2.2 0 0 0 2.2 2.21h100.09a2.2 2.2 0 0 0 2.2-2.21V83a2.34 2.34 0 0 1-2.33 2.34"/><path fill="#fff" d="M105.39 26.11H3.1c-.61 0-1.1-.5-1.1-1.11v58.41a2.34 2.34 0 0 0 2.33 2.34h99.83a2.34 2.34 0 0 0 2.33-2.34V25c0 .61-.5 1.11-1.1 1.11"/><path fill="#fdd132" d="M104.67 26.11H74v59.64h29.44a2.34 2.34 0 0 0 2.33-2.34V25a1.1 1.1 0 0 1-1.1 1.11"/><path fill="#f95428" d="M105.39 8H95.38v6.41c0 1.22-.99 2.22-2.2 2.22h-3.52c-1.21 0-2.2-1-2.2-2.22V8H21.03v6.41c0 1.22-.99 2.22-2.2 2.22h-3.52c-1.21 0-2.2-1-2.2-2.22V8H3.1C2.49 8 2 8.5 2 9.11v15.05c0 .61.49 1.1 1.1 1.1h102.29c.6 0 1.1-.49 1.1-1.1V9.11c0-.61-.5-1.11-1.1-1.11"/><path fill="#def9ff" d="M66.99 75.27c0 .6-.49 1.1-1.1 1.1H10.1c-.61 0-1.1-.5-1.1-1.1V34.11c0-.61.49-1.11 1.1-1.11h55.79c.61 0 1.1.5 1.1 1.11z"/><path fill="#00adee" d="M28 76.37h20.8V33H28z"/><path fill="#bfbfbf" d="M20.92 15.11c0 1.21-.99 2.21-2.2 2.21H15.2c-1.21 0-2.2-1-2.2-2.21V4.21C13 3 13.99 2 15.2 2h3.52c1.21 0 2.2 1 2.2 2.21zM94.92 15.11c0 1.21-.99 2.21-2.2 2.21H89.2c-1.21 0-2.2-1-2.2-2.21V4.21C87 3 87.99 2 89.2 2h3.52c1.21 0 2.2 1 2.2 2.21z"/><path d="M98.21 42H81.65c-.91 0-1.65.74-1.65 1.66 0 .92.74 1.66 1.65 1.66h16.56c.91 0 1.65-.74 1.65-1.66 0-.92-.74-1.66-1.65-1.66M98.21 48H81.65c-.91 0-1.65.74-1.65 1.66 0 .92.74 1.66 1.65 1.66h16.56c.91 0 1.65-.74 1.65-1.66 0-.92-.74-1.66-1.65-1.66M98.21 54H81.65c-.91 0-1.65.74-1.65 1.66 0 .92.74 1.66 1.65 1.66h16.56c.91 0 1.65-.74 1.65-1.66 0-.92-.74-1.66-1.65-1.66M98.21 64H81.65c-.91 0-1.65.74-1.65 1.66 0 .92.74 1.66 1.65 1.66h16.56c.91 0 1.65-.74 1.65-1.66 0-.92-.74-1.66-1.65-1.66M98.21 70H81.65c-.91 0-1.65.74-1.65 1.66 0 .92.74 1.66 1.65 1.66h16.56c.91 0 1.65-.74 1.65-1.66 0-.92-.74-1.66-1.65-1.66M83.65 38.52c.91 0 1.65-.74 1.65-1.66v-2.2a1.65 1.65 0 1 0-3.3 0v2.2c0 .92.74 1.66 1.65 1.66M89.3 36.86v-2.2a1.65 1.65 0 1 0-3.3 0v2.2a1.65 1.65 0 1 0 3.3 0M94.3 36.86v-2.2a1.65 1.65 0 1 0-3.3 0v2.2a1.65 1.65 0 1 0 3.3 0M99.3 36.86v-2.2a1.65 1.65 0 1 0-3.3 0v2.2a1.65 1.65 0 1 0 3.3 0"/><path d="M93.38 14.76c0 .3-.25.56-.55.56h-3.52a.56.56 0 0 1-.55-.56V3.87c0-.3.25-.55.55-.55h3.52c.3 0 .55.25.55.55zm-74.9.56h-3.52a.56.56 0 0 1-.55-.56V3.87c0-.3.25-.55.55-.55h3.52c.3 0 .55.25.55.55v10.89c0 .3-.25.56-.55.56zM3.85 89.42a.55.55 0 0 1-.55-.55v-1.95h101.19v1.95c0 .3-.25.55-.55.55zm100.64 3.32v1.28c0 .3-.25.56-.55.56H3.85a.56.56 0 0 1-.55-.56v-1.28zm3.3-83.28a2.76 2.76 0 0 0-2.75-2.77h-8.36V3.87A3.87 3.87 0 0 0 92.83 0h-3.52a3.87 3.87 0 0 0-3.85 3.87v2.82H22.33V3.87A3.87 3.87 0 0 0 18.48 0h-3.52a3.87 3.87 0 0 0-3.85 3.87v2.82H2.75A2.76 2.76 0 0 0 0 9.46v84.56a3.86 3.86 0 0 0 3.85 3.87h100.09a3.86 3.86 0 0 0 3.85-3.87zM3.3 23.96V10.01h7.81v4.75a3.87 3.87 0 0 0 3.85 3.88h3.52a3.87 3.87 0 0 0 3.85-3.88v-4.75h63.13v4.75a3.87 3.87 0 0 0 3.85 3.88h3.52a3.87 3.87 0 0 0 3.85-3.88v-4.75h7.81v13.95zm69.42 3.31V83.6H3.98a.69.69 0 0 1-.68-.68V27.27zm3.3 0h28.47v55.65c0 .37-.31.68-.68.68H76.02z"/><path d="M50.7 35.32h15.29v19.5H50.7zm0 22.82h15.29v7.64H50.7zm0 10.96h15.29v6.27H50.7zM29.9 35.32h17.5v19.5H29.9zm17.5 40.05H29.9V58.14h17.5zM11.3 54.82v-19.5h15.3v19.5zm15.3 3.32v17.23H11.3V58.14zM10.75 32A2.76 2.76 0 0 0 8 34.76v41.16a2.76 2.76 0 0 0 2.75 2.77h55.79a2.76 2.76 0 0 0 2.75-2.77V34.76A2.76 2.76 0 0 0 66.54 32z"/></svg>