<svg xmlns="http://www.w3.org/2000/svg" width="109" height="94" viewBox="0 0 109 94"><path fill="#f95428" d="M39.39 79.59v12.84l-9.2-4.95L21 92.43V64h18.39v8.71z"/><path fill="#ffd998" d="M97.34 63.94a31.07 31.07 0 0 0 2.34 8.71h-59.6v-8.71H21.7v8.7a12.26 12.26 0 0 1-10.21-6.44 12.26 12.26 0 0 1 0-11.75l.09-.16A12.32 12.32 0 0 1 22.32 48h77.36a30.91 30.91 0 0 0-2.55 12.33c0 1.21.07 2.41.21 3.61"/><path fill="#ffda98" d="M12.34 24.94A31.08 31.08 0 0 0 10 9h77.37a12.33 12.33 0 0 1 0 24.65H10c1.22-2.8 2-5.73 2.34-8.71"/><path fill="#d3af72" d="M98.14 15.45A12.33 12.33 0 0 0 87.31 9H77a12.33 12.33 0 0 1 0 24.65h10.31a12.24 12.24 0 0 0 10.83-6.45 12.34 12.34 0 0 0 0-11.75"/><path fill="#00adee" d="M106.28 73.01a3.44 3.44 0 0 1-2.43 5.87H40V72h63.85c.94 0 1.8.39 2.43 1.01"/><path fill="#00adee" d="M105.87 42.01a3.43 3.43 0 0 1-2.43 5.87H21.83A12.3 12.3 0 0 0 11 66.08a12.24 12.24 0 0 0 10.21 6.44v6.89h-.02A19.18 19.18 0 0 1 2 60.21 19.2 19.2 0 0 1 21.19 41h82.25c.95 0 1.81.39 2.43 1.01"/><path fill="#f95428" d="M87.69 2a19.2 19.2 0 0 1 0 38.41H5.44a3.44 3.44 0 1 1 0-6.88H87.05a12.34 12.34 0 0 0 12.32-12.32A12.35 12.35 0 0 0 87.05 8.88H5.44a3.44 3.44 0 1 1 0-6.88h82.25"/><path fill="#d2af72" d="M99.1 48a30.91 30.91 0 0 0-1.95 6.29H11A12.3 12.3 0 0 1 21.74 48z"/><path fill="#d3af72" d="M10 9a31.58 31.58 0 0 1 1.96 6.29H98.1A12.3 12.3 0 0 0 87.37 9z"/><path fill="#d2af72" d="M21.15 64v8.7A12.29 12.29 0 0 1 10 64z"/><path fill="#fff" d="M33.06 83.35A2.06 2.06 0 0 1 31 81.29v-5.23a2.06 2.06 0 1 1 4.12 0v5.23c0 1.14-.92 2.06-2.06 2.06M33.06 68a2.07 2.07 0 0 1 0 4.13 2.07 2.07 0 0 1 0-4.13"/><path fill="#191919" d="M96.27 69.94c-.49-1.5-.87-3.03-1.14-4.58H73.99a2.07 2.07 0 0 1 0-4.13h20.69c-.02-.52-.04-1.03-.04-1.55 0-.51.02-1.03.04-1.55h-10.2a2.06 2.06 0 1 1 0-4.12h10.65c.27-1.56.65-3.09 1.14-4.59H21.89a10.26 10.26 0 0 0-2.68 20.16v-6.29c0-1.14.92-2.06 2.06-2.06h27.18a2.07 2.07 0 0 1 0 4.13h-6.73v4.58zm8.2 4.53a1.4 1.4 0 0 0-.97-.4H41.72v2.75h61.78c.76 0 1.38-.62 1.38-1.37 0-.37-.15-.72-.41-.98zm-66.88-9.11H23.33v22.91l6.15-3.32a2.15 2.15 0 0 1 1.96 0l6.15 3.32zM9.14 71.8a17.01 17.01 0 0 0 10.07 4.9v-2.89a14.29 14.29 0 0 1-9.96-7.27 14.41 14.41 0 0 1 0-13.72 14.37 14.37 0 0 1 12.64-7.53h81.61c.76 0 1.38-.62 1.38-1.38a1.38 1.38 0 0 0-1.38-1.37H21.24A17.15 17.15 0 0 0 9.14 71.8zM5.5 38.41h82.26a17.15 17.15 0 0 0-.01-34.28H5.5a1.37 1.37 0 1 0 0 2.75h81.61c5.28 0 10.13 2.88 12.64 7.53a14.37 14.37 0 0 1-12.64 21.25H5.5c-.76 0-1.38.62-1.38 1.38 0 .75.62 1.37 1.38 1.37zm8.36-11.46a34.4 34.4 0 0 1-1.13 4.58h74.38a10.24 10.24 0 0 0 9.02-15.15 10.24 10.24 0 0 0-9.02-5.37H12.73c.49 1.5.86 3.03 1.13 4.58h10.66a2.07 2.07 0 0 1 0 4.13H14.31c.05 1.03.05 2.07 0 3.1h20.7a2.07 2.07 0 0 1 0 4.13zm86.79 22.47a29.17 29.17 0 0 0-1.69 13.63c.28 2.36.85 4.67 1.69 6.89h2.85a5.5 5.5 0 1 1 0 11.01H41.72v10.77c0 .73-.38 1.4-1.01 1.77a2 2 0 0 1-2.03.05l-8.22-4.43-8.22 4.43a2.06 2.06 0 0 1-3.03-1.82V80.85a21.07 21.07 0 0 1-12.98-6.13 21.26 21.26 0 0 1 2.46-32.18H5.5a5.51 5.51 0 0 1 0-11.01h2.85a29 29 0 0 0 0-20.52H5.5A5.51 5.51 0 0 1 5.5 0h82.25a21.28 21.28 0 0 1 12.56 38.41h3.19a5.46 5.46 0 0 1 5.5 5.5 5.51 5.51 0 0 1-5.5 5.51z"/><path fill="#333" d="M42.06 23a2.07 2.07 0 0 1 0 4.13 2.07 2.07 0 0 1 0-4.13"/></svg>