<svg xmlns="http://www.w3.org/2000/svg" width="143" height="102" viewBox="0 0 143 102"><path fill="#919191" d="M134.95 100.67H44V25h90.95z"/><path fill="#919191" d="M139.04 27.29v2.3a2.29 2.29 0 0 1-2.27 2.29h-95.5A2.29 2.29 0 0 1 39 29.59v-2.3A2.28 2.28 0 0 1 41.27 25h95.5a2.28 2.28 0 0 1 2.27 2.29z"/><path fill="#919191" d="M114.02 100.13H64V13h50.02z"/><path fill="#919191" d="M102.28 93.39H75v-32.1A2.28 2.28 0 0 1 77.27 59h22.74a2.27 2.27 0 0 1 2.27 2.29zM116.57 13.29v2.3a2.29 2.29 0 0 1-2.28 2.29H64.27A2.29 2.29 0 0 1 62 15.59v-2.3A2.28 2.28 0 0 1 64.27 11h50.02a2.28 2.28 0 0 1 2.28 2.29M120.48 42.32c0-.64.51-1.15 1.14-1.15h4.55c.63 0 1.14.51 1.14 1.15v11.46c0 .64-.51 1.15-1.14 1.15h-4.55c-.63 0-1.14-.51-1.14-1.15zm1.14 35.54c-.63 0-1.14-.52-1.14-1.15V65.25c0-.64.51-1.15 1.14-1.15h4.55c.63 0 1.14.51 1.14 1.15v11.46c0 .63-.51 1.15-1.14 1.15zM51.14 54.93c-.63 0-1.14-.51-1.14-1.15V42.32c0-.63.51-1.15 1.14-1.15h4.54c.63 0 1.14.51 1.14 1.15v11.46c0 .64-.51 1.15-1.14 1.15zm0 22.93c-.63 0-1.14-.52-1.14-1.15V65.25c0-.64.51-1.15 1.14-1.15h4.54c.63 0 1.14.51 1.14 1.15v11.46c0 .63-.51 1.15-1.14 1.15zM104.57 32c.63 0 1.14.51 1.14 1.14V49.2c0 .63-.51 1.14-1.14 1.14h-4.55c-.63 0-1.14-.51-1.14-1.14V33.14c0-.63.51-1.14 1.14-1.14zm-27.29 0c.63 0 1.14.51 1.14 1.14V49.2c0 .63-.51 1.14-1.14 1.14h-4.54c-.63 0-1.14-.51-1.14-1.14V33.14c0-.63.51-1.14 1.14-1.14zm14.78 1.14c0-.63-.51-1.14-1.13-1.14h-4.55c-.63 0-1.14.51-1.14 1.14V49.2c0 .63.51 1.14 1.14 1.14h4.55c.62 0 1.13-.51 1.13-1.14z"/><path fill="#919191" d="M108.79 20.46H70.14c-.63 0-1.14-.51-1.14-1.14v-9.18c0-.63.51-1.14 1.14-1.14h38.65c.63 0 1.14.51 1.14 1.14v9.18c0 .63-.51 1.14-1.14 1.14"/><path fill="#919191" d="M99.55 2a15.25 15.25 0 0 1 1.19 5.91c0 7.16-4.89 13.13-11.37 14.5C82.88 21.04 78 15.07 78 7.91c0-2.1.43-4.1 1.19-5.91zM89 59h11.37a2.29 2.29 0 0 1 2.27 2.29v32.1H89z"/><path fill="#919191" d="M120.66 88.14v12.62H57V88.14c0-.63.51-1.14 1.14-1.14h61.39c.62 0 1.13.51 1.13 1.14"/><path fill="#919191" d="M136.49 94.14v5.74H41v-5.74c0-.63.51-1.14 1.14-1.14h93.22c.63 0 1.13.51 1.13 1.14M100 7.92c0 7.15-4.88 13.12-11.37 14.49A14.03 14.03 0 0 1 82 18.93 18.34 18.34 0 0 0 93.18 2h5.64A15.25 15.25 0 0 1 100 7.92"/><path fill="#919191" d="M122.54 52.51h3.41V42.19h-3.41zm3.98-13.76a2.86 2.86 0 0 1 2.84 2.87v11.46a2.86 2.86 0 0 1-2.84 2.87h-4.55a2.86 2.86 0 0 1-2.84-2.87V41.62a2.86 2.86 0 0 1 2.84-2.87zm-3.98 36.69h3.41V65.12h-3.41zm3.98-13.76a2.86 2.86 0 0 1 2.84 2.86v11.47a2.86 2.86 0 0 1-2.84 2.87h-4.55a2.86 2.86 0 0 1-2.84-2.87V64.54a2.85 2.85 0 0 1 2.84-2.86zm-25.58-13.76h3.41v-14.9h-3.41zm-.57 3.44a2.86 2.86 0 0 1-2.84-2.87V32.44a2.85 2.85 0 0 1 2.84-2.86h4.55a2.86 2.86 0 0 1 2.84 2.86v16.05a2.86 2.86 0 0 1-2.84 2.87zm-26.72-3.44h3.41v-14.9h-3.41zm-.57 3.44a2.86 2.86 0 0 1-2.84-2.87V32.44a2.86 2.86 0 0 1 2.84-2.86h4.55a2.85 2.85 0 0 1 2.84 2.86v16.05a2.85 2.85 0 0 1-2.84 2.87zm14.21-3.44h3.42v-14.9h-3.42zm-.56 3.44a2.87 2.87 0 0 1-2.85-2.87V32.44a2.86 2.86 0 0 1 2.85-2.86h4.54a2.86 2.86 0 0 1 2.85 2.86v16.05a2.86 2.86 0 0 1-2.85 2.87zm-34.68 1.15h3.41V42.19h-3.41zm-.57 3.44a2.86 2.86 0 0 1-2.84-2.87V41.62a2.86 2.86 0 0 1 2.84-2.87h4.55a2.86 2.86 0 0 1 2.84 2.87v11.46a2.86 2.86 0 0 1-2.84 2.87zm3.98 19.49V65.12h-3.41v10.32zm3.41.57a2.86 2.86 0 0 1-2.84 2.87h-4.55a2.86 2.86 0 0 1-2.84-2.87V64.54a2.86 2.86 0 0 1 2.84-2.86h4.55a2.85 2.85 0 0 1 2.84 2.86zM42.96 98.37h92.08v-3.44H42.96zm-2.28-69.36c0 .31.26.57.57.57h21.03v-3.44H41.25a.58.58 0 0 0-.57.57zm22.74-13.76c0 .31.26.57.57.57h2.84v-3.44h-2.84a.58.58 0 0 0-.57.57zm6.82 2.86h9.32a16.75 16.75 0 0 1-3.45-8.02h-5.87zM80 3.44a13.45 13.45 0 0 0-.66 4.19c0 6.08 4.04 11.37 9.66 12.73 5.62-1.36 9.66-6.65 9.66-12.73 0-1.44-.22-2.84-.66-4.19zm27.76 6.65h-5.87a16.75 16.75 0 0 1-3.45 8.02h9.32zm6.82 2.86a.58.58 0 0 0-.57-.57h-2.84v3.44h2.84c.31 0 .57-.26.57-.57zm22.17 13.19h-21.03v3.44h21.03c.31 0 .57-.26.57-.57v-2.3a.58.58 0 0 0-.57-.57zM77.06 84.61h10.23V60.53h-9.66a.58.58 0 0 0-.57.58zm23.88 0v-23.5a.58.58 0 0 0-.57-.58h-9.66v24.08zM65.69 19.26v65.35h7.96v-23.5a4 4 0 0 1 3.98-4.02h22.74a4 4 0 0 1 3.98 4.02v23.5h7.96V19.26h-1.2a2.84 2.84 0 0 1-2.78 2.29H94.7a15.25 15.25 0 0 1-5.35 2.26c-.12.02-.23.04-.35.04-.12 0-.23-.02-.35-.04a15.25 15.25 0 0 1-5.35-2.26H69.67a2.84 2.84 0 0 1-2.78-2.29zM55.46 91.49v-4.02a2.86 2.86 0 0 1 2.85-2.86h3.97V33.02H45.23v58.47zm3.41 0h60.26v-3.44H58.87zm73.9 0V33.02h-17.05v51.59h3.97a2.86 2.86 0 0 1 2.85 2.86v4.02zm8.52 6.88c.95 0 1.71.77 1.71 1.72s-.76 1.72-1.71 1.72H36.71c-.95 0-1.71-.77-1.71-1.72s.76-1.72 1.71-1.72h2.84v-4.02c0-1.38.98-2.54 2.27-2.81V33.02h-.57a4 4 0 0 1-3.98-4.01v-2.3a4 4 0 0 1 3.98-4.01h21.03v-3.83a4.03 4.03 0 0 1-2.27-3.62v-2.3a4 4 0 0 1 3.98-4.01h2.9a2.85 2.85 0 0 1 2.78-2.29h6.29c.11-1.94.54-3.82 1.29-5.6.26-.64.88-1.05 1.57-1.05h20.36c.69 0 1.31.41 1.57 1.05a16.81 16.81 0 0 1 1.29 5.6h6.29c1.37 0 2.52.99 2.78 2.29h2.9a4 4 0 0 1 3.98 4.01v2.3c0 1.59-.93 2.97-2.27 3.62v3.83h21.03a4 4 0 0 1 3.98 4.01v2.3a4 4 0 0 1-3.98 4.01h-.57v58.52a2.88 2.88 0 0 1 2.27 2.81v4.02z"/><path fill="#bd5200" d="M103.53 100.64H5V19h98.53z"/><path fill="#900" d="M108.38 21.47v2.48c0 1.37-1.1 2.47-2.46 2.47H2.46A2.46 2.46 0 0 1 0 23.95v-2.48C0 20.11 1.1 19 2.46 19h103.46a2.47 2.47 0 0 1 2.46 2.47z"/><path fill="#ff5200" d="M81.19 100.01H27V6h54.19z"/><path fill="#823e1f" d="M69.56 93.11H40V58.47c0-1.36 1.1-2.47 2.46-2.47h24.63a2.48 2.48 0 0 1 2.47 2.47z"/><path fill="#900" d="M84.12 6.47v2.48a2.47 2.47 0 0 1-2.47 2.47H27.46A2.46 2.46 0 0 1 25 8.95V6.47C25 5.11 26.1 4 27.46 4h54.19a2.48 2.48 0 0 1 2.47 2.47"/><path fill="#e7ede2" d="M89.36 37.13c0-.68.55-1.23 1.23-1.23h4.93c.68 0 1.23.55 1.23 1.23V49.5c0 .68-.55 1.24-1.23 1.24h-4.93c-.68 0-1.23-.55-1.23-1.24zm1.23 38.35c-.68 0-1.23-.56-1.23-1.24V61.87c0-.68.55-1.24 1.23-1.24h4.93c.68 0 1.23.56 1.23 1.24v12.37c0 .68-.55 1.24-1.23 1.24zM14.23 50.74c-.68 0-1.23-.56-1.23-1.24V37.13c0-.68.55-1.23 1.23-1.23h4.93c.68 0 1.23.55 1.23 1.23V49.5c0 .68-.55 1.24-1.23 1.24zm0 24.74c-.68 0-1.23-.56-1.23-1.24V61.87c0-.68.55-1.24 1.23-1.24h4.93c.68 0 1.23.56 1.23 1.24v12.37c0 .68-.55 1.24-1.23 1.24zM72.12 26c.68 0 1.23.55 1.23 1.23v17.33c0 .68-.55 1.23-1.23 1.23h-4.93c-.68 0-1.23-.55-1.23-1.23V27.23c0-.68.55-1.23 1.23-1.23zm-29.56 0c.68 0 1.23.55 1.23 1.23v17.33c0 .68-.55 1.23-1.23 1.23h-4.93c-.68 0-1.23-.55-1.23-1.23V27.23c0-.68.55-1.23 1.23-1.23zm16.01 1.23c0-.68-.55-1.23-1.23-1.23h-4.93c-.68 0-1.23.55-1.23 1.23v17.33c0 .68.55 1.23 1.23 1.23h4.93c.68 0 1.23-.55 1.23-1.23z"/><path fill="#28749e" d="M75.11 13.37H33.23c-.68 0-1.23-.55-1.23-1.23V2.23c0-.68.55-1.23 1.23-1.23h41.88c.68 0 1.23.55 1.23 1.23v9.91c0 .68-.55 1.23-1.23 1.23"/><path fill="#602812" d="M55 56h12.32a2.47 2.47 0 0 1 2.46 2.47v34.64H55z"/><path fill="#ffa800" d="M88.97 86.23v13.61H20V86.23c0-.68.55-1.23 1.23-1.23h66.51c.68 0 1.23.55 1.23 1.23"/><path fill="#ff8b00" d="M106.45 94.23v6.19H3v-6.19c0-.68.55-1.23 1.23-1.23h100.99c.68 0 1.23.55 1.23 1.23"/></svg>