<svg xmlns="http://www.w3.org/2000/svg" width="147" height="110" viewBox="0 0 147 110"><path fill="#919191" d="M138.95 108.67H48V33h90.95z"/><path fill="#919191" d="M143.04 35.29v2.3a2.29 2.29 0 0 1-2.27 2.29h-95.5A2.29 2.29 0 0 1 43 37.59v-2.3A2.28 2.28 0 0 1 45.27 33h95.5a2.28 2.28 0 0 1 2.27 2.29z"/><path fill="#919191" d="M118.02 108.13H68V21h50.02z"/><path fill="#919191" d="M106.28 101.39H79v-32.1A2.28 2.28 0 0 1 81.27 67h22.74a2.27 2.27 0 0 1 2.27 2.29zM120.57 21.29v2.3a2.29 2.29 0 0 1-2.28 2.29H68.27A2.29 2.29 0 0 1 66 23.59v-2.3A2.28 2.28 0 0 1 68.27 19h50.02a2.28 2.28 0 0 1 2.28 2.29M124.48 50.32c0-.64.51-1.15 1.14-1.15h4.55c.63 0 1.14.51 1.14 1.15v11.46c0 .64-.51 1.15-1.14 1.15h-4.55c-.63 0-1.14-.51-1.14-1.15zm1.14 35.54c-.63 0-1.14-.52-1.14-1.15V73.25c0-.64.51-1.15 1.14-1.15h4.55c.63 0 1.14.51 1.14 1.15v11.46c0 .63-.51 1.15-1.14 1.15zM55.14 62.93c-.63 0-1.14-.51-1.14-1.15V50.32c0-.63.51-1.15 1.14-1.15h4.54c.63 0 1.14.51 1.14 1.15v11.46c0 .64-.51 1.15-1.14 1.15zm0 22.93c-.63 0-1.14-.52-1.14-1.15V73.25c0-.64.51-1.15 1.14-1.15h4.54c.63 0 1.14.51 1.14 1.15v11.46c0 .63-.51 1.15-1.14 1.15zM108.57 40c.63 0 1.14.51 1.14 1.14V57.2c0 .63-.51 1.14-1.14 1.14h-4.55c-.63 0-1.14-.51-1.14-1.14V41.14c0-.63.51-1.14 1.14-1.14zm-27.29 0c.63 0 1.14.51 1.14 1.14V57.2c0 .63-.51 1.14-1.14 1.14h-4.54c-.63 0-1.14-.51-1.14-1.14V41.14c0-.63.51-1.14 1.14-1.14zm14.78 1.14c0-.63-.51-1.14-1.13-1.14h-4.55c-.63 0-1.14.51-1.14 1.14V57.2c0 .63.51 1.14 1.14 1.14h4.55c.62 0 1.13-.51 1.13-1.14z"/><path fill="#919191" d="M112.79 28.46H74.14c-.63 0-1.14-.51-1.14-1.14v-9.18c0-.63.51-1.14 1.14-1.14h38.65c.63 0 1.14.51 1.14 1.14v9.18c0 .63-.51 1.14-1.14 1.14"/><path fill="#919191" d="M103.55 10a15.25 15.25 0 0 1 1.19 5.91c0 7.16-4.89 13.13-11.37 14.5C86.88 29.04 82 23.07 82 15.91c0-2.1.43-4.1 1.19-5.91zM93 67h11.37a2.29 2.29 0 0 1 2.27 2.29v32.1H93z"/><path fill="#919191" d="M124.66 96.14v12.62H61V96.14c0-.63.51-1.14 1.14-1.14h61.39c.62 0 1.13.51 1.13 1.14"/><path fill="#919191" d="M140.49 102.14v5.74H45v-5.74c0-.63.51-1.14 1.14-1.14h93.22c.63 0 1.13.51 1.13 1.14M104 15.92c0 7.15-4.88 13.12-11.37 14.49A14.03 14.03 0 0 1 86 26.93 18.34 18.34 0 0 0 97.18 10h5.64a15.25 15.25 0 0 1 1.18 5.92"/><path fill="#919191" d="M126.54 60.51h3.41V50.19h-3.41zm3.98-13.76a2.86 2.86 0 0 1 2.84 2.87v11.46a2.86 2.86 0 0 1-2.84 2.87h-4.55a2.86 2.86 0 0 1-2.84-2.87V49.62a2.86 2.86 0 0 1 2.84-2.87zm-3.98 36.69h3.41V73.12h-3.41zm3.98-13.76a2.86 2.86 0 0 1 2.84 2.86v11.47a2.86 2.86 0 0 1-2.84 2.87h-4.55a2.86 2.86 0 0 1-2.84-2.87V72.54a2.85 2.85 0 0 1 2.84-2.86zm-25.58-13.76h3.41v-14.9h-3.41zm-.57 3.44a2.86 2.86 0 0 1-2.84-2.87V40.44a2.85 2.85 0 0 1 2.84-2.86h4.55a2.86 2.86 0 0 1 2.84 2.86v16.05a2.86 2.86 0 0 1-2.84 2.87zm-26.72-3.44h3.41v-14.9h-3.41zm-.57 3.44a2.86 2.86 0 0 1-2.84-2.87V40.44a2.86 2.86 0 0 1 2.84-2.86h4.55a2.85 2.85 0 0 1 2.84 2.86v16.05a2.85 2.85 0 0 1-2.84 2.87zm14.21-3.44h3.42v-14.9h-3.42zm-.56 3.44a2.87 2.87 0 0 1-2.85-2.87V40.44a2.86 2.86 0 0 1 2.85-2.86h4.54a2.86 2.86 0 0 1 2.85 2.86v16.05a2.86 2.86 0 0 1-2.85 2.87zm-34.68 1.15h3.41V50.19h-3.41zm-.57 3.44a2.86 2.86 0 0 1-2.84-2.87V49.62a2.86 2.86 0 0 1 2.84-2.87h4.55a2.86 2.86 0 0 1 2.84 2.87v11.46a2.86 2.86 0 0 1-2.84 2.87zm3.98 19.49V73.12h-3.41v10.32zm3.41.57a2.86 2.86 0 0 1-2.84 2.87h-4.55a2.86 2.86 0 0 1-2.84-2.87V72.54a2.86 2.86 0 0 1 2.84-2.86h4.55a2.85 2.85 0 0 1 2.84 2.86zm-15.91 22.36h92.08v-3.44H46.96zm-2.28-69.36c0 .31.26.57.57.57h21.03v-3.44H45.25a.58.58 0 0 0-.57.57zm22.74-13.76c0 .31.26.57.57.57h2.84v-3.44h-2.84a.58.58 0 0 0-.57.57zm6.82 2.86h9.32a16.75 16.75 0 0 1-3.45-8.02h-5.87zM84 11.44a13.45 13.45 0 0 0-.66 4.19c0 6.08 4.04 11.37 9.66 12.73 5.62-1.36 9.66-6.65 9.66-12.73 0-1.44-.22-2.84-.66-4.19zm27.76 6.65h-5.87a16.75 16.75 0 0 1-3.45 8.02h9.32zm6.82 2.86a.58.58 0 0 0-.57-.57h-2.84v3.44h2.84c.31 0 .57-.26.57-.57zm22.17 13.19h-21.03v3.44h21.03c.31 0 .57-.26.57-.57v-2.3a.58.58 0 0 0-.57-.57zM81.06 92.61h10.23V68.53h-9.66a.58.58 0 0 0-.57.58zm23.88 0v-23.5a.58.58 0 0 0-.57-.58h-9.66v24.08zM69.69 27.26v65.35h7.96v-23.5a4 4 0 0 1 3.98-4.02h22.74a4 4 0 0 1 3.98 4.02v23.5h7.96V27.26h-1.2a2.84 2.84 0 0 1-2.78 2.29H98.7a15.25 15.25 0 0 1-5.35 2.26c-.12.02-.23.04-.35.04-.12 0-.23-.02-.35-.04a15.25 15.25 0 0 1-5.35-2.26H73.67a2.84 2.84 0 0 1-2.78-2.29zM59.46 99.49v-4.02a2.86 2.86 0 0 1 2.85-2.86h3.97V41.02H49.23v58.47zm3.41 0h60.26v-3.44H62.87zm73.9 0V41.02h-17.05v51.59h3.97a2.86 2.86 0 0 1 2.85 2.86v4.02zm8.52 6.88c.95 0 1.71.77 1.71 1.72s-.76 1.72-1.71 1.72H40.71c-.95 0-1.71-.77-1.71-1.72s.76-1.72 1.71-1.72h2.84v-4.02c0-1.38.98-2.54 2.27-2.81V41.02h-.57a4 4 0 0 1-3.98-4.01v-2.3a4 4 0 0 1 3.98-4.01h21.03v-3.83a4.03 4.03 0 0 1-2.27-3.62v-2.3a4 4 0 0 1 3.98-4.01h2.9a2.85 2.85 0 0 1 2.78-2.29h6.29c.11-1.94.54-3.82 1.29-5.6.26-.64.88-1.05 1.57-1.05h20.36c.69 0 1.31.41 1.57 1.05a16.81 16.81 0 0 1 1.29 5.6h6.29c1.37 0 2.52.99 2.78 2.29h2.9a4 4 0 0 1 3.98 4.01v2.3c0 1.59-.93 2.97-2.27 3.62v3.83h21.03a4 4 0 0 1 3.98 4.01v2.3a4 4 0 0 1-3.98 4.01h-.57v58.52a2.88 2.88 0 0 1 2.27 2.81v4.02z"/><path fill="#bd5200" d="M107.53 108.64H9V27h98.53z"/><path fill="#900" d="M112.38 29.47v2.48c0 1.37-1.1 2.47-2.46 2.47H6.46A2.46 2.46 0 0 1 4 31.95v-2.48C4 28.11 5.1 27 6.46 27h103.46a2.47 2.47 0 0 1 2.46 2.47z"/><path fill="#ff5200" d="M85.19 108.01H31V14h54.19z"/><path fill="#823e1f" d="M73.56 101.11H44V66.47c0-1.36 1.1-2.47 2.46-2.47h24.63a2.48 2.48 0 0 1 2.47 2.47z"/><path fill="#900" d="M88.12 14.47v2.48a2.47 2.47 0 0 1-2.47 2.47H31.46A2.46 2.46 0 0 1 29 16.95v-2.48c0-1.36 1.1-2.47 2.46-2.47h54.19a2.48 2.48 0 0 1 2.47 2.47"/><path fill="#e7ede2" d="M93.36 45.13c0-.68.55-1.23 1.23-1.23h4.93c.68 0 1.23.55 1.23 1.23V57.5c0 .68-.55 1.24-1.23 1.24h-4.93c-.68 0-1.23-.55-1.23-1.24zm1.23 38.35c-.68 0-1.23-.56-1.23-1.24V69.87c0-.68.55-1.24 1.23-1.24h4.93c.68 0 1.23.56 1.23 1.24v12.37c0 .68-.55 1.24-1.23 1.24zM18.23 58.74c-.68 0-1.23-.56-1.23-1.24V45.13c0-.68.55-1.23 1.23-1.23h4.93c.68 0 1.23.55 1.23 1.23V57.5c0 .68-.55 1.24-1.23 1.24zm0 24.74c-.68 0-1.23-.56-1.23-1.24V69.87c0-.68.55-1.24 1.23-1.24h4.93c.68 0 1.23.56 1.23 1.24v12.37c0 .68-.55 1.24-1.23 1.24zM76.12 34c.68 0 1.23.55 1.23 1.23v17.33c0 .68-.55 1.23-1.23 1.23h-4.93c-.68 0-1.23-.55-1.23-1.23V35.23c0-.68.55-1.23 1.23-1.23zm-29.56 0c.68 0 1.23.55 1.23 1.23v17.33c0 .68-.55 1.23-1.23 1.23h-4.93c-.68 0-1.23-.55-1.23-1.23V35.23c0-.68.55-1.23 1.23-1.23zm16.01 1.23c0-.68-.55-1.23-1.23-1.23h-4.93c-.68 0-1.23.55-1.23 1.23v17.33c0 .68.55 1.23 1.23 1.23h4.93c.68 0 1.23-.55 1.23-1.23z"/><path fill="#28749e" d="M79.11 21.37H37.23c-.68 0-1.23-.55-1.23-1.23v-9.91c0-.68.55-1.23 1.23-1.23h41.88c.68 0 1.23.55 1.23 1.23v9.91c0 .68-.55 1.23-1.23 1.23"/><path fill="#ffc02c" d="M69.35 2a16.44 16.44 0 0 1 1.28 6.38c0 7.72-5.29 14.16-12.31 15.64C51.29 22.54 46 16.1 46 8.38c0-2.27.46-4.43 1.28-6.38z"/><path fill="#602812" d="M59 64h12.32a2.47 2.47 0 0 1 2.46 2.47v34.64H59z"/><path fill="#ffa800" d="M92.97 94.23v13.61H24V94.23c0-.68.55-1.23 1.23-1.23h66.51c.68 0 1.23.55 1.23 1.23"/><path fill="#ff8b00" d="M110.45 102.23v6.19H7v-6.19c0-.68.55-1.23 1.23-1.23h100.99c.68 0 1.23.55 1.23 1.23"/><path fill="#ffa800" d="M70.5 8.38c0 7.72-5.29 14.16-12.31 15.64A15.25 15.25 0 0 1 51 20.27 19.8 19.8 0 0 0 63.11 2h6.11a16.44 16.44 0 0 1 1.28 6.38"/><path d="M94.83 56.65h3.7V45.52h-3.7zm4.31-14.84c1.7 0 3.08 1.39 3.08 3.09v12.37a3.08 3.08 0 0 1-3.08 3.09h-4.92a3.08 3.08 0 0 1-3.08-3.09V44.9c0-1.7 1.38-3.09 3.08-3.09zm-4.31 39.58h3.7V70.26h-3.7zm4.31-14.84c1.7 0 3.08 1.38 3.08 3.09v12.37c0 1.7-1.38 3.09-3.08 3.09h-4.92a3.09 3.09 0 0 1-3.08-3.09V69.64a3.08 3.08 0 0 1 3.08-3.09zM71.43 51.7h3.7V35.62h-3.7zm-.61 3.71a3.08 3.08 0 0 1-3.08-3.09V35.01a3.1 3.1 0 0 1 3.08-3.1h4.92a3.1 3.1 0 0 1 3.08 3.1v17.31a3.08 3.08 0 0 1-3.08 3.09zM41.87 51.7h3.7V35.62h-3.7zm-.61 3.71a3.08 3.08 0 0 1-3.08-3.09V35.01a3.1 3.1 0 0 1 3.08-3.1h4.92a3.1 3.1 0 0 1 3.08 3.1v17.31a3.08 3.08 0 0 1-3.08 3.09zm15.39-3.71h3.7V35.62h-3.7zm-.61 3.71a3.08 3.08 0 0 1-3.08-3.09V35.01a3.1 3.1 0 0 1 3.08-3.1h4.92a3.1 3.1 0 0 1 3.08 3.1v17.31a3.08 3.08 0 0 1-3.08 3.09zm-37.57 1.24h3.7V45.52h-3.7zm-.61 3.71a3.08 3.08 0 0 1-3.08-3.09V44.9c0-1.7 1.38-3.09 3.08-3.09h4.92c1.7 0 3.08 1.39 3.08 3.09v12.37a3.08 3.08 0 0 1-3.08 3.09zm4.31 21.03V70.26h-3.7v11.13zm3.69.62c0 1.7-1.38 3.09-3.08 3.09h-4.92a3.09 3.09 0 0 1-3.08-3.09V69.64a3.08 3.08 0 0 1 3.08-3.09h4.92c1.7 0 3.08 1.38 3.08 3.09zM8.62 106.13h99.76v-3.71H8.62zM6.16 31.29c0 .35.27.62.61.62h22.79V28.2H6.77a.61.61 0 0 0-.61.62zm24.63-14.84c0 .34.28.62.62.62h3.07v-3.71h-3.07a.62.62 0 0 0-.62.62zm7.39 3.09h10.09a18.29 18.29 0 0 1-3.74-8.66h-6.35zM48.75 3.71a14.37 14.37 0 0 0-.72 4.53c0 6.55 4.38 12.26 10.47 13.73 6.09-1.47 10.47-7.18 10.47-13.73 0-1.56-.24-3.08-.72-4.53zm30.07 7.17h-6.35a18.29 18.29 0 0 1-3.74 8.66h10.09zm7.39 3.1a.62.62 0 0 0-.62-.62h-3.07v3.71h3.07c.34 0 .62-.28.62-.62zm24.02 14.22H87.44v3.71h22.79a.6.6 0 0 0 .61-.62v-2.47a.61.61 0 0 0-.61-.62zM45.57 91.29h11.08V65.31H46.18a.61.61 0 0 0-.61.62zm25.86 0V65.93a.61.61 0 0 0-.61-.62H60.35v25.98zM33.25 20.78v70.51h8.62V65.93a4.33 4.33 0 0 1 4.31-4.33h24.64a4.33 4.33 0 0 1 4.31 4.33v25.36h8.62V20.78h-1.3a3.08 3.08 0 0 1-3.01 2.47H64.68a16.88 16.88 0 0 1-5.8 2.44c-.13.03-.25.04-.38.04s-.25-.02-.38-.04a16.88 16.88 0 0 1-5.8-2.44H37.56a3.08 3.08 0 0 1-3.01-2.47zM22.17 98.71v-4.33a3.08 3.08 0 0 1 3.08-3.09h4.31V35.62H11.08v63.09zm3.69 0h65.28V95H25.86zm80.06 0V35.62H87.44v55.67h4.31c1.7 0 3.08 1.38 3.08 3.09v4.33zm9.23 7.42a1.85 1.85 0 0 1 0 3.71H1.85a1.85 1.85 0 0 1 0-3.71h3.08v-4.33a3.1 3.1 0 0 1 2.46-3.03V35.62h-.62a4.33 4.33 0 0 1-4.31-4.33v-2.47a4.33 4.33 0 0 1 4.31-4.33h22.79v-4.13a4.34 4.34 0 0 1-2.47-3.91v-2.47a4.33 4.33 0 0 1 4.32-4.33h3.14a3.09 3.09 0 0 1 3.01-2.48h6.81c.12-2.08.59-4.11 1.4-6.04.29-.68.96-1.13 1.7-1.13h22.06c.74 0 1.41.45 1.7 1.13a18.28 18.28 0 0 1 1.4 6.04h6.81a3.09 3.09 0 0 1 3.01 2.48h3.14a4.33 4.33 0 0 1 4.32 4.33v2.47a4.34 4.34 0 0 1-2.47 3.91v4.13h22.79a4.33 4.33 0 0 1 4.31 4.33v2.47a4.33 4.33 0 0 1-4.31 4.33h-.62v63.15a3.1 3.1 0 0 1 2.46 3.03v4.33z"/></svg>