<svg xmlns="http://www.w3.org/2000/svg" width="120" height="115" viewBox="0 0 120 115"><path fill="#00adee" d="M59.8 62.99a6.24 6.24 0 0 1 4.6 6.03v43.11H2V69.02a6.24 6.24 0 0 1 4.6-6.03L24.88 58h16.64z"/><path fill="#008abe" d="M2 69.17v43.11h12.48V82.54c0-2.31-.77-4.56-2.19-6.39L3.62 65A6.2 6.2 0 0 0 2 69.17M64.48 69.17v43.11H52V82.54c0-2.31.77-4.56 2.19-6.39L62.86 65a6.2 6.2 0 0 1 1.62 4.17"/><path fill="#fad7a5" d="M23 66.65h20.8V50H23z"/><path fill="#e6af78" d="M114.32 77.17l-14.26-5.71a4.18 4.18 0 0 1-2.62-3.87V60H80.8v7.59c0 1.7-1.04 3.23-2.61 3.87l-14.27 5.71A6.23 6.23 0 0 0 60 82.96v8.27c0 1.15.93 2.08 2.08 2.08v18.73h54.08V93.31c1.15 0 2.08-.93 2.08-2.08v-8.27a6.23 6.23 0 0 0-3.92-5.79"/><path fill="#d29b6e" d="M89.53 70.41c3.01 0 5.87-.56 8.54-1.53a3.97 3.97 0 0 1-.22-1.29V60H81.21v7.59c0 .45-.08.88-.21 1.29a24.9 24.9 0 0 0 8.53 1.53"/><path fill="#ffdc64" d="M114.32 76.73L102.5 72c-1.97 3.11-6.42 9.07-13.38 12.55-6.96-3.48-11.41-9.44-13.38-12.55l-11.82 4.73a6.25 6.25 0 0 0-3.92 5.8v10.35h10.4v18.73h37.44V92.88h10.4V82.53a6.25 6.25 0 0 0-3.92-5.8"/><path fill="#ffc850" d="M70.4 91.19c0-1.11-.44-2.17-1.22-2.95L60.95 80c-.6.97-.95 2.09-.95 3.28v10.35h10.4zM108 91.19c0-1.11.44-2.17 1.22-2.95l8.23-8.24c.6.97.95 2.09.95 3.28v10.35H108z"/><path fill="#4fcfff" d="M20.67 56l12.48 10.41-6.71 5.03c-.9.68-2.17.52-2.87-.36l-6.11-7.65c-.57-.7-.61-1.7-.11-2.45z"/><path fill="#4fcfff" d="M45.48 56L33 66.41l6.71 5.03c.9.68 2.17.52 2.87-.36l6.11-7.65c.57-.7.61-1.7.11-2.45z"/><path fill="#ffe1b4" d="M51.6 26.49V14H14.16v12.49a4.16 4.16 0 1 0 0 8.33 18.72 18.72 0 1 0 37.44 0 4.17 4.17 0 0 0 0-8.33"/><path fill="#d59f63" d="M46.8 25c.61 1.61 2.33 2.34 4.02 2.04a4.05 4.05 0 0 1 2.78.52V14.49a8.3 8.3 0 0 0-4.26-7.23A6.22 6.22 0 0 0 43.2 2H26.56A14.56 14.56 0 0 0 12 16.57v10.99a4.09 4.09 0 0 1 2.08-.58h2.45c1 0 1.85-.7 2.04-1.67l1.28-6.37a2.07 2.07 0 0 1 2.6-1.59c5.61 1.57 16.95 2.16 22.83-.78l1.21 7.27c.07.41.17.79.31 1.16"/><path fill="#785546" d="M98.83 12.63c.26-.74.45-1.5.45-2.3 0-4.6-4.66-8.33-10.4-8.33s-10.4 3.73-10.4 8.33c0 .83.2 1.61.48 2.37A23.9 23.9 0 0 0 66 33.99v5.48c10.4-4.16 14.56-10.41 14.56-10.41 10.4 8.33 27.04 2.09 27.04 16.66l.7-1.05a20.62 20.62 0 0 0 3.46-11.44c0-9.08-5.28-16.9-12.93-20.6"/><path fill="#64463c" d="M92.28 10.61a21.38 21.38 0 0 0-7.53.13c-.01-.14-.03-.27-.03-.41 0-3.39 1.79-6.4 4.55-8.3L88.88 2c-5.74 0-10.4 3.73-10.4 8.33 0 .83.17 1.63.46 2.38A23.91 23.91 0 0 0 66 33.99v5.48c10.4-4.16 14.56-10.41 14.56-10.41V24.9c0-7.08 5.04-12.97 11.73-14.29h-.01"/><path fill="#f0c087" d="M107.6 45.74c0-13.78-14.89-8.94-25.3-15.42a2.08 2.08 0 0 0-2.83.59c-1.6 2.43-4.89 6.42-9.18 6.5-2.34.05-4.29 1.79-4.29 4.13v.04c0 2.3 1.86 4.16 4.16 4.16a18.74 18.74 0 0 0 18.72 18.74 18.73 18.73 0 0 0 18.72-18.74"/><path d="M32.92 45.6c2.1 0 4.12-1 5.52-2.73.61-.76.5-1.86-.25-2.48a1.77 1.77 0 0 0-2.48.26 3.59 3.59 0 0 1-2.79 1.43 3.6 3.6 0 0 1-2.8-1.43 1.76 1.76 0 0 0-2.73 2.22 7.16 7.16 0 0 0 5.53 2.73M11.33 69.97a1.75 1.75 0 0 0-2.36-.78 1.75 1.75 0 0 0-.78 2.36l3.97 7.95v32.9c0 .97.79 1.75 1.76 1.75s1.76-.78 1.76-1.75V79.09c0-.28-.07-.55-.19-.79zM56.7 69.19a1.74 1.74 0 0 0-2.35.78l-4.16 8.33c-.13.24-.19.51-.19.79v33.31c0 .97.79 1.75 1.76 1.75s1.76-.78 1.76-1.75V79.5l3.97-7.95c.43-.87.08-1.93-.79-2.36M94.44 52.87c.61-.76.5-1.86-.25-2.48a1.77 1.77 0 0 0-2.48.26 3.59 3.59 0 0 1-2.79 1.43 3.6 3.6 0 0 1-2.8-1.43 1.76 1.76 0 0 0-2.73 2.22 7.16 7.16 0 0 0 5.53 2.73c2.1 0 4.12-1 5.52-2.73"/><path d="M88.88 83.04c5.3-2.93 8.71-7.67 10.14-9.96a5.9 5.9 0 0 1-3.58-5.44v-2.76a20.24 20.24 0 0 1-13.12 0v2.76a5.9 5.9 0 0 1-3.58 5.44c1.42 2.29 4.84 7.03 10.14 9.96zM78.22 58.69a16.8 16.8 0 0 0 10.66 3.76c3.92 0 7.61-1.3 10.65-3.76a17.1 17.1 0 0 0 6.31-13.21c0-7.03-4.03-8.16-11.76-9.7-4.19-.83-8.88-1.76-12.98-4.4-1.75 2.7-5.61 7.53-10.94 7.53a2.4 2.4 0 0 0 0 4.81c.97 0 1.76.79 1.76 1.76a17.02 17.02 0 0 0 6.3 13.21zM67.76 35.9a5.8 5.8 0 0 1 2.4-.51c2.54 0 4.76-1.91 6.17-3.51a20.95 20.95 0 0 0 2.66-3.85 1.8 1.8 0 0 1 1.19-.93 1.8 1.8 0 0 1 1.48.35c3.78 3.03 8.52 3.97 13.11 4.88 5.92 1.18 12.01 2.39 13.95 8.55.24-.53.45-1 .56-1.33.26-.74.72-3.07.72-3.07v-3.49a21.15 21.15 0 0 0-21.12-21.14 21.15 21.15 0 0 0-21.12 21.14zM88.88 3.52c-4.68 0-8.5 2.84-8.64 6.37a24.52 24.52 0 0 1 17.27 0c-.13-3.53-3.95-6.37-8.63-6.37zm25.85 72.06a7.97 7.97 0 0 1 5.03 7.43v10.35c0 .97-.79 1.76-1.76 1.76h-.32v16.97a1.76 1.76 0 1 1-3.52 0V95.12h-4.8v16.97a1.76 1.76 0 1 1-3.52 0v-22.9c0-.97.79-1.75 1.76-1.75s1.76.78 1.76 1.75v2.41h6.88v-8.59c0-1.84-1.1-3.48-2.82-4.16l-11.09-4.44c-1.47 2.5-5.65 8.68-12.67 12.19a1.7 1.7 0 0 1-1.57 0c-7.01-3.51-11.19-9.69-12.66-12.19l-11.1 4.44a4.45 4.45 0 0 0-2.81 4.16v8.59h6.88v-2.41c0-.97.79-1.75 1.76-1.75s1.76.78 1.76 1.75v22.9a1.76 1.76 0 1 1-3.52 0V95.12h-4.8v16.97a1.76 1.76 0 1 1-3.52 0V95.12h-.32c-.47 0-.92-.19-1.24-.52a1.75 1.75 0 0 1-.52-1.24V83.01a7.96 7.96 0 0 1 5.03-7.43l14.26-5.71a2.39 2.39 0 0 0 1.51-2.23v-4.32a20.56 20.56 0 0 1-10.34-16.33 5.94 5.94 0 0 1-4.22-5.68v-8.32c0-9.23 5.09-17.28 12.6-21.51a8.16 8.16 0 0 1-.12-1.39C76.72 4.52 82.17 0 88.88 0c6.7 0 12.16 4.52 12.16 10.09 0 .46-.04.93-.12 1.39a24.68 24.68 0 0 1 12.6 21.51v3.27s-.59 3.8-1.03 4.95c-.34.86-1.53 2.23-1.92 3.07-.4.83-.66 1.44-1.22 1.66a20.52 20.52 0 0 1-10.39 17.38v4.32c0 .99.59 1.86 1.51 2.23z"/><path d="M47.42 62.04l-2.36-3.55-9.27 7.73 4.93 3.7c.14.11.34.08.45-.05zm-17.29 4.18l-9.27-7.73-2.37 3.55 6.26 7.83c.11.13.31.16.45.05zm2.83-10.66c-3.09 0-6.02-.69-8.64-1.92v3.16l8.64 7.2 8.64-7.2v-3.16a20.32 20.32 0 0 1-8.64 1.92zM16 35.07c0 9.36 7.61 16.97 16.96 16.97 9.35 0 16.96-7.61 16.96-16.97 0-.97.79-1.76 1.76-1.76a2.4 2.4 0 0 0 2.4-2.41c0-.85-.45-1.62-1.2-2.06-.55-.32-.88-.9-.88-1.52V14.25a6.57 6.57 0 0 0-3.36-5.69 1.8 1.8 0 0 1-.88-1.26 4.44 4.44 0 0 0-4.4-3.78H26.72c-7.06 0-12.8 5.75-12.8 12.81v8.66l.32-.01h2.45c.16 0 .29-.11.32-.26l1.28-6.4a3.82 3.82 0 0 1 4.85-2.92c2.77.81 6.25 1.25 9.82 1.25 4.54 0 8.84-.71 11.8-1.94.9-.38 1.93.05 2.3.94.38.9-.05 1.93-.94 2.31-3.43 1.43-8.1 2.21-13.16 2.21-3.95 0-7.68-.48-10.8-1.39a.37.37 0 0 0-.29.03c-.07.05-.12.11-.13.2l-1.28 6.4a3.85 3.85 0 0 1-3.77 3.09h-2.45c-.38 0-.75.09-1.09.26a.44.44 0 0 1-.11.08 2.4 2.4 0 0 0 1.2 4.47c.97 0 1.76.79 1.76 1.76zm35.36 27.14a1.8 1.8 0 0 1-.39 1.02l-7.06 8.83a3.83 3.83 0 0 1-5.3.68l-3.89-2.93v42.28a1.76 1.76 0 1 1-3.52 0V69.81l-3.89 2.93a3.83 3.83 0 0 1-5.3-.68l-7.06-8.83a1.8 1.8 0 0 1-.39-1.02l-7.85 2.35a4.46 4.46 0 0 0-3.19 4.3v43.23a1.76 1.76 0 1 1-3.52 0V68.86a7.97 7.97 0 0 1 5.7-7.67l11.41-3.42 1.91-2.86a1.75 1.75 0 0 1 1.78-.75v-2.62a20.46 20.46 0 0 1-8.26-14.96 5.92 5.92 0 1 1-2.14-10.16V16.33C10.4 7.33 17.72 0 26.72 0h16.64a7.94 7.94 0 0 1 7.7 5.92 10.08 10.08 0 0 1 4.46 8.33v12.17a5.92 5.92 0 0 1-2.14 10.16 20.5 20.5 0 0 1-8.26 14.96v2.62a1.75 1.75 0 0 1 1.78.75l1.9 2.86 11.42 3.42c1.9.57 3.98 2.42 4.98 5.35.79 2.31.72 5.62.72 7.19 0 .97-.79 1.76-1.76 1.76s-1.76 1.7-1.76.73c0-1.04.28-6.08-.32-8.1-.55-1.89-1.95-3.28-2.87-3.56z"/><path d="M26.77 83h-.02c-.97 0-1.75.79-1.75 1.76s.8 1.76 1.77 1.76a1.76 1.76 0 0 0 0-3.52M26.77 100h-.02c-.97 0-1.75.79-1.75 1.76s.8 1.76 1.77 1.76a1.76 1.76 0 0 0 0-3.52M26.77 92h-.02c-.97 0-1.75.79-1.75 1.76s.8 1.76 1.77 1.76a1.76 1.76 0 0 0 0-3.52M116.73 114.32H1.16a1.16 1.16 0 0 1 0-2.32h115.57c.64 0 1.16.52 1.16 1.16 0 .63-.52 1.16-1.16 1.16M23 31.5a2.5 2.5 0 1 1 5 0 2.5 2.5 0 0 1-5 0zM81 41.5a2.5 2.5 0 1 1 5 0 2.5 2.5 0 0 1-5 0zM91 41.5a2.5 2.5 0 1 1 5 0 2.5 2.5 0 0 1-5 0zM38 31.5a2.5 2.5 0 1 1 5 0 2.5 2.5 0 0 1-5 0z"/></svg>