<svg xmlns="http://www.w3.org/2000/svg" width="129" height="121" viewBox="0 0 129 121"><path fill="#939393" d="M88.26 86a19.4 19.4 0 0 1 19.47 19.31v13.8H41v-13.8A19.38 19.38 0 0 1 60.46 86zM53.28 32A11.24 11.24 0 0 0 42 43.2v7.86h11.28zM96 32c6.23 0 11.28 5.01 11.28 11.2v7.86H96z"/><path fill="#939393" d="M49.28 45A8.25 8.25 0 0 0 41 53.21a8.24 8.24 0 0 0 8.28 8.21h3.8V45zM99.8 45a8.25 8.25 0 0 1 8.28 8.21 8.24 8.24 0 0 1-8.28 8.21H96V45zM68 88.05h14.27V72H68z"/><path fill="#939393" d="M68 81.55a30.51 30.51 0 0 0 14.27 0V71H68z"/><path fill="#939393" d="M74.81 15A25.72 25.72 0 0 0 49 40.61V53.9a25.72 25.72 0 0 0 25.81 25.61 25.72 25.72 0 0 0 25.82-25.61V40.61A25.72 25.72 0 0 0 74.81 15"/><path fill="#939393" d="M53.23 53.9V40.61a25.68 25.68 0 0 1 23.7-25.52A25.72 25.72 0 0 0 49 40.61V53.9a25.72 25.72 0 0 0 27.93 25.52 25.69 25.69 0 0 1-23.7-25.52M53.08 88A19.32 19.32 0 0 0 41 105.87v13.8h12.08zM96 88a19.33 19.33 0 0 1 12.08 17.87v13.8H96zM74.89 109.74l16.89-23.51c-.97-.15-1.97-.23-2.99-.23h-27.8c-1.02 0-2.02.08-2.99.23z"/><path fill="#939393" d="M75.99 86l2.65 3.59-2.65 4.6h-3.34L70 89.59 72.65 86z"/><path fill="#939393" d="M79.04 103.96L76.69 94h-3.34L71 103.96l4.02 5.6zM74.89 66.1c9.15 6.23 14.9-1.65 14.9-1.65s-3.99.09-5.44-3.03c-3.74-8.51-9.46-6.11-9.46-6.11s-5.71-2.4-9.45 6.11C63.99 64.54 60 64.45 60 64.45s5.75 7.88 14.89 1.65M84.68 32.37H64.7a1.69 1.69 0 0 1 0-3.37h19.98a1.69 1.69 0 1 1 0 3.37M86.99 38.37H61.7a1.69 1.69 0 0 1 0-3.37h25.29a1.69 1.69 0 1 1 0 3.37M62.34 46a3.32 3.32 0 1 1 0 6.63A3.33 3.33 0 0 1 59 49.32c0-1.84 1.5-3.32 3.34-3.32M86.34 46a3.32 3.32 0 1 1 0 6.63A3.33 3.33 0 0 1 83 49.32c0-1.84 1.5-3.32 3.34-3.32"/><path fill="#939393" d="M106.8 117.52h-8.69V90.26a17.65 17.65 0 0 1 8.47 12.43l.02.07.1.83v.01l.07.81v.18l.03.81zm-12.08 0H55.54V88.71c.63-.22 1.28-.4 1.95-.54l13.99 19.48 2.27 3.16a1.73 1.73 0 0 0 1.38.71l.16-.01h.04l.17-.03.03-.01.11-.03.09-.03.03-.01c.3-.12.56-.32.75-.59l16.26-22.64c.67.14 1.32.32 1.95.54zM69.44 88.69c-.4.54-.44 1.25-.1 1.83l2.32 4.02-1.35 5.69-8.94-12.45h8.74zM51.01 53.31v-8.38c0-4.15-.08-8.43 1.31-12.4a24.13 24.13 0 0 1 22.29-16.16h.52c6.72 0 13.23 2.86 17.77 7.77a24.03 24.03 0 0 1 5.46 9.76c.88 3.15.88 6.32.88 9.56v1.47c0 4.28.34 8.61-.39 12.85a23.4 23.4 0 0 1-4.27 9.91 24.3 24.3 0 0 1-8.76 7.33 24.41 24.41 0 0 1-22.33-.5 24.4 24.4 0 0 1-9.5-9.43 23.08 23.08 0 0 1-2.01-4.86 25.2 25.2 0 0 1-.97-6.92zm18.68 31.1v-4.07c0 .29 4.33.51 4.73.52 2.06.06 4.13-.12 6.15-.52v4.07zm7.63 19.47l-2.19 3.05-2.19-3.05 1.87-7.92h.64zm-1.51-11.29h-1.36l-1.62-2.79 1.49-2.02h1.62l1.49 2.02zm4.14 7.64l-1.35-5.69 2.32-4.02c.34-.58.3-1.29-.1-1.83l-.67-.91h8.74zm-36.49 17.29V105.4l.02-.81.01-.18.07-.81v-.01l.1-.83.01-.07a17.7 17.7 0 0 1 8.47-12.43v27.26zm3.71-70.28h.01l.4-.18.04-.01c0 4.04-.26 8.13.58 12.12l.04.22a6.56 6.56 0 0 1-4.78-6.28 6.58 6.58 0 0 1 3.71-5.87zm.78-11.16l-.01.02a28.25 28.25 0 0 0-.33 4.4c0 .25.13 2.98.01 3.01-.59.15-1.18.36-1.74.61-.22.1-1.62.7-1.62.94v-1.47c0-3.01 1.4-5.75 3.69-7.51zm54.52 20.55c.22-1.99.17-4 .17-6 0-.3.21-3.5 0-3.58l.04.01.4.18h.01a6.6 6.6 0 0 1 3.71 5.87c0 2.98-2.03 5.5-4.78 6.28.05-.02.08-.09.11-.2.19-.59.31-2.31.34-2.56zm-.45 2.76h-.01.01zM106 45.06a9.9 9.9 0 0 0-3.36-1.55c0-2.47.06-4.95-.32-7.41l-.01-.02a9.44 9.44 0 0 1 3.69 7.51zm2.15 51.37a20.8 20.8 0 0 0-3.49-5.17 21.6 21.6 0 0 0-10.89-6.3c-3.21-.76-6.53-.55-9.81-.55v-4.98a27.52 27.52 0 0 0 17-16.46 9.94 9.94 0 0 0 9.23-9.86c0-1.35-.28-2.64-.79-3.83v-5.69c0-5.33-3.26-10.03-8.18-11.97A27.55 27.55 0 0 0 75.13 13a27.55 27.55 0 0 0-26.09 18.62 12.83 12.83 0 0 0-8.18 11.97c0 5.33 1.61 5.97 1.61 5.97s-1.88 4.14-.62 6.81c1.94 4.11 3.98 6.88 7.45 6.6a27.52 27.52 0 0 0 17 16.46v4.98h-5.07a21.52 21.52 0 0 0-15.47 6.66 21.2 21.2 0 0 0-5.68 13.4c-.17 3.52-.01 7.09-.01 10.62v4.11c0 .94.76 1.69 1.7 1.69h66.72c.94 0 1.7-.75 1.7-1.69v-9.13c0-1.9.01-3.75-.11-5.56a21.57 21.57 0 0 0-1.93-8.08z"/><path fill="#939393" d="M63.22 66.08a6.5 6.5 0 0 0 3.45-3.27l.02-.03c1.56-3.54 3.64-5.41 6.03-5.41.68 0 1.14.15 1.22.18.44.2.86.2 1.3 0 .08-.03.55-.18 1.22-.18 2.39 0 4.47 1.87 6.03 5.41l.02.03a6.47 6.47 0 0 0 3.47 3.27 7.98 7.98 0 0 1-4.49 1.42c-1.89 0-3.89-.71-5.94-2.11a1.72 1.72 0 0 0-1.92 0c-2.05 1.4-4.05 2.11-5.94 2.11a8.1 8.1 0 0 1-4.47-1.42zm27.64.04a1.69 1.69 0 0 0-1.41-2.67c-.12 0-2.91-.03-3.85-2.03-1.23-2.78-4.04-7.42-9.14-7.42-.78 0-1.42.12-1.87.23a7.28 7.28 0 0 0-1.87-.23c-5.1 0-7.91 4.64-9.13 7.42-.95 2-3.74 2.03-3.85 2.03a1.7 1.7 0 0 0-1.55.9c-.3.56-.25 1.25.13 1.77.14.19 3.53 4.74 9.37 4.74 2.28 0 4.59-.69 6.9-2.08a13.34 13.34 0 0 0 6.9 2.08c5.84 0 9.23-4.55 9.37-4.74zM64.7 32.37h19.98a1.69 1.69 0 0 0 0-3.37H64.7a1.69 1.69 0 1 0 0 3.37M61.7 38.37h25.29a1.69 1.69 0 0 0 0-3.37H61.7a1.69 1.69 0 1 0 0 3.37M56.41 28.64a7.68 7.68 0 0 1-7.71 7.65 7.68 7.68 0 0 1-7.7-7.65A7.67 7.67 0 0 1 48.7 21a7.67 7.67 0 0 1 7.71 7.64"/><path fill="#939393" d="M53.41 37.64a7.68 7.68 0 0 1-7.71 7.65 7.68 7.68 0 0 1-7.7-7.65A7.67 7.67 0 0 1 45.7 30a7.67 7.67 0 0 1 7.71 7.64M64.41 21.64a7.68 7.68 0 0 1-7.71 7.65 7.68 7.68 0 0 1-7.7-7.65A7.67 7.67 0 0 1 56.7 14a7.67 7.67 0 0 1 7.71 7.64"/><path fill="#939393" d="M72.41 14.64a7.68 7.68 0 0 1-7.71 7.65 7.68 7.68 0 0 1-7.7-7.65A7.67 7.67 0 0 1 64.7 7a7.67 7.67 0 0 1 7.71 7.64"/><path fill="#939393" d="M82.41 16.64a7.68 7.68 0 0 1-7.71 7.65 7.68 7.68 0 0 1-7.7-7.65A7.67 7.67 0 0 1 74.7 9a7.67 7.67 0 0 1 7.71 7.64"/><path fill="#939393" d="M94.41 16.64a7.68 7.68 0 0 1-7.71 7.65 7.68 7.68 0 0 1-7.7-7.65A7.67 7.67 0 0 1 86.7 9a7.67 7.67 0 0 1 7.71 7.64"/><path fill="#939393" d="M103.41 22.64a7.68 7.68 0 0 1-7.71 7.65 7.68 7.68 0 0 1-7.7-7.65A7.67 7.67 0 0 1 95.7 15a7.67 7.67 0 0 1 7.71 7.64"/><path fill="#939393" d="M108.41 29.64a7.68 7.68 0 0 1-7.71 7.65 7.68 7.68 0 0 1-7.7-7.65 7.67 7.67 0 0 1 7.7-7.64 7.67 7.67 0 0 1 7.71 7.64"/><path fill="#d8d8d8" d="M100 75c0-1.1.9-2 2-2h15a2 2 0 1 1 0 4h-15a2 2 0 0 1-2-2zM107 84c0-1.1.9-2 2-2h11a2 2 0 1 1 0 4h-11a2 2 0 0 1-2-2zM106 66c0-1.1.9-2 2-2h11a2 2 0 1 1 0 4h-11a2 2 0 0 1-2-2zM122 75a2 2 0 1 1 4 0 2 2 0 0 1-4 0zM125 84a2 2 0 1 1 4 0 2 2 0 0 1-4 0zM124 66a2 2 0 1 1 4 0 2 2 0 0 1-4 0z"/><path fill="#00adee" d="M54.44 82c11.93 0 21.59 9.7 21.59 21.66v15.48H2v-15.48A21.63 21.63 0 0 1 23.59 82z"/><path fill="#85a1a6" d="M15.52 22A12.54 12.54 0 0 0 3 34.56v8.81h12.52zM63 22c6.91 0 12.52 5.62 12.52 12.56v8.81H63z"/><path fill="#f4c49d" d="M11.18 36A9.2 9.2 0 0 0 2 45.21a9.2 9.2 0 0 0 9.18 9.21h4.22V36zM67.21 36a9.2 9.2 0 0 1 9.19 9.21 9.2 9.2 0 0 1-9.19 9.21H63V36zM31 84.99h15.83V67H31z"/><path fill="#fccda2" d="M38.64 2A28.68 28.68 0 0 0 10 30.72v14.9a28.68 28.68 0 0 0 28.64 28.73 28.68 28.68 0 0 0 28.64-28.73v-14.9A28.68 28.68 0 0 0 38.64 2"/><path fill="#fff9f2" d="M15.4 84A21.67 21.67 0 0 0 2 104.04v15.48h13.4zM63 84a21.67 21.67 0 0 1 13.4 20.04v15.48H63zM38.74 108.63l18.74-26.38a22.66 22.66 0 0 0-3.32-.25H23.32c-1.13 0-2.24.09-3.32.25z"/><path fill="#fec331" d="M40.64 82l2.94 4.03-2.94 5.15h-3.7L34 86.03 36.94 82z"/><path fill="#fec331" d="M42.92 102.17L40.31 91h-3.7L34 102.17l4.46 6.28z"/><path fill="#85a1a6" d="M38.52 60.45c10.15 6.98 16.53-1.85 16.53-1.85s-4.42.1-6.03-3.4c-4.16-9.54-10.5-6.85-10.5-6.85s-6.33-2.69-10.49 6.85C26.42 58.7 22 58.6 22 58.6s6.38 8.83 16.52 1.85"/><path fill="#ffc78c" d="M50.05 21.78H27.88a1.89 1.89 0 0 1 0-3.78h22.17a1.9 1.9 0 0 1 1.89 1.89 1.9 1.9 0 0 1-1.89 1.89M52.95 28.78H24.88a1.89 1.89 0 0 1 0-3.78h28.07a1.89 1.89 0 0 1 0 3.78"/><path fill="#26140c" d="M25.71 37a3.71 3.71 0 1 1 0 7.42 3.71 3.71 0 0 1 0-7.42M52.71 37a3.71 3.71 0 1 1 0 7.42 3.71 3.71 0 0 1 0-7.42"/><path fill="#26140c" d="M74.11 117.22h-9.63V86.65a19.83 19.83 0 0 1 9.4 13.94l.01.08.12.93v.01l.07.91.01.2.02.91zm-13.4 0H17.24V84.91c.71-.24 1.43-.44 2.16-.6l15.52 21.84 2.52 3.55c.09.12.19.24.31.33.34.3.77.46 1.23.46l.17-.01h.05l.19-.03.04-.01.11-.04.1-.03.04-.01c.33-.14.62-.36.83-.66l18.04-25.39c.74.16 1.46.36 2.16.6zM32.67 84.89c-.44.6-.49 1.4-.12 2.05l2.57 4.51-1.49 6.38-9.92-13.97h9.7zM12.22 45.21v-9.4c0-4.66-.09-9.45 1.45-13.91A26.92 26.92 0 0 1 38.4 3.78h.58a26.86 26.86 0 0 1 25.77 19.66c.98 3.53.98 7.08.98 10.72v1.65c0 4.8.37 9.65-.44 14.41a26.3 26.3 0 0 1-4.73 11.11 27.1 27.1 0 0 1-9.72 8.23 26.8 26.8 0 0 1-35.31-11.14 26.28 26.28 0 0 1-2.24-5.45 28.17 28.17 0 0 1-1.07-7.76zm20.73 34.87v-4.55c0 .32 4.8.57 5.24.58 2.29.06 4.58-.13 6.82-.58v4.55zm8.46 21.85l-2.43 3.42-2.43-3.42 2.07-8.89h.72zm-1.67-12.66h-1.52l-1.79-3.14 1.65-2.27h1.79l1.66 2.27zm4.58 8.56l-1.49-6.38 2.57-4.51c.37-.65.33-1.45-.11-2.05l-.75-1.03h9.7zM3.84 117.22v-13.59c0-.31.01-.61.03-.91l.01-.2c.01-.3.03-.61.07-.91v-.01l.11-.93.02-.08a19.81 19.81 0 0 1 9.39-13.94v30.57zm4.11-78.81l.01-.01a8.85 8.85 0 0 1 .49-.22c0 4.54-.28 9.13.65 13.6l.05.25a7.34 7.34 0 0 1-5.31-7.05 7.37 7.37 0 0 1 4.11-6.57zm.87-12.52l-.01.02a32.52 32.52 0 0 0-.36 4.93c0 .28.14 3.35 0 3.38-.65.17-1.31.4-1.93.68-.24.12-1.8.78-1.8 1.05v-1.64c0-3.38 1.56-6.45 4.1-8.42zm60.49 23.04c.25-2.23.19-4.48.19-6.73 0-.33.23-3.89 0-4.02l.05.02a5.88 5.88 0 0 1 .45.21 7.38 7.38 0 0 1 4.11 6.57 7.35 7.35 0 0 1-5.3 7.05c.04-.02.09-.1.13-.22.21-.67.34-2.6.37-2.88zm.2-10.75zm3.72-2.23a11.06 11.06 0 0 0-2.88-1.48l-.07-.02-.39-.12-.16-.05-.23-.06c0-2.78.06-5.56-.36-8.31v-.02a10.61 10.61 0 0 1 4.09 8.42zm2.38 57.62a23.05 23.05 0 0 0-3.87-5.8 23.91 23.91 0 0 0-12.08-7.07c-3.57-.85-7.25-.62-10.88-.62v-5.57a30.77 30.77 0 0 0 18.86-18.46A11.11 11.11 0 0 0 77 40.69v-6.38a14.4 14.4 0 0 0-9.08-13.43A30.58 30.58 0 0 0 38.98 0a30.6 30.6 0 0 0-28.95 20.89A14.38 14.38 0 0 0 .96 34.31v6.38a11.1 11.1 0 0 0 9.36 15.36 30.72 30.72 0 0 0 18.86 18.46v5.57h-5.63a23.76 23.76 0 0 0-17.16 7.48 23.95 23.95 0 0 0-6.3 15.02c-.19 3.95-.01 7.96-.01 11.91v4.62c0 1.04.84 1.89 1.88 1.89h74.03a1.9 1.9 0 0 0 1.89-1.89v-10.25c0-2.12.01-4.2-.12-6.23-.2-3.08-.74-6.07-2.15-9.06z"/><path fill="#26140c" d="M26.79 59.55a7.27 7.27 0 0 0 3.84-3.67l.01-.03c1.73-3.97 4.05-6.07 6.7-6.07.74 0 1.26.17 1.35.2.49.22.95.22 1.44 0 .08-.03.6-.2 1.35-.2 2.65 0 4.97 2.1 6.7 6.07l.01.03a7.25 7.25 0 0 0 3.85 3.67 8.87 8.87 0 0 1-4.97 1.59c-2.11 0-4.32-.8-6.6-2.36a1.85 1.85 0 0 0-2.13 0c-2.27 1.56-4.49 2.36-6.59 2.36a8.92 8.92 0 0 1-4.96-1.59zm30.67.04a1.89 1.89 0 0 0-1.57-2.99c-.13 0-3.22-.03-4.27-2.28C50.26 51.2 47.14 46 41.48 46c-.87 0-1.58.13-2.07.26a8.25 8.25 0 0 0-2.07-.26c-5.66 0-8.78 5.2-10.14 8.32-1.05 2.25-4.15 2.28-4.27 2.28a1.86 1.86 0 0 0-1.71 1.01c-.34.63-.28 1.4.14 1.98.15.22 3.91 5.32 10.39 5.32 2.53 0 5.1-.78 7.66-2.33a14.74 14.74 0 0 0 7.66 2.33c6.47 0 10.23-5.1 10.39-5.32zM27.88 21.78h22.17a1.9 1.9 0 0 0 1.89-1.89A1.9 1.9 0 0 0 50.05 18H27.88a1.89 1.89 0 0 0 0 3.78M24.88 28.78h28.07a1.89 1.89 0 0 0 0-3.78H24.88a1.89 1.89 0 0 0 0 3.78"/></svg>