<svg xmlns="http://www.w3.org/2000/svg" width="80" height="80" viewBox="0 0 80 80"><path fill="#fec331" d="M72.89 54H6.22C5 54 4 55 4 56.22v17.4c0 1.22 1 2.22 2.22 2.22h66.65c1.23 0 2.23-1 2.23-2.22v-17.4c0-1.22-1-2.22-2.21-2.22"/><path fill="#161616" d="M75.53 73.31c0 1.22-1 2.22-2.22 2.22H6.66c-1.22 0-2.22-1-2.22-2.22V55.9c0-1.22 1-2.22 2.22-2.22h66.65c1.22 0 2.22 1 2.22 2.22zM6.66 49.24c-.33 0-.65.03-.96.09a37.18 37.18 0 0 1-1.2-7.12h14.48c.08 2.38.26 4.72.54 7.03zm14.36-26.82a71.4 71.4 0 0 0-2.03 15.35H4.52a35.57 35.57 0 0 1 7.49-19.67 39.03 39.03 0 0 0 9.01 4.32zm1.27-4.25A33.89 33.89 0 0 1 15 14.75a35.05 35.05 0 0 1 13.49-8.38c-2.49 3.04-4.61 7.06-6.2 11.8zm15.48 24.04v7.03H24.01c-.31-2.29-.5-4.66-.57-7.03zm-14.34-4.45c.15-5.02.82-9.8 1.87-14.1a62.3 62.3 0 0 0 12.45 1.7v12.4zm14.34-16.84c-3.9-.15-7.69-.66-11.2-1.5 2.61-7.76 6.64-13.28 11.2-14.64zm18.76 21.29a69.9 69.9 0 0 1-.57 7.03H42.19v-7.03zM42.21 25.36c4.32-.15 8.53-.74 12.44-1.7a68.25 68.25 0 0 1 1.88 14.1H42.21zm0-20.58c4.56 1.38 8.58 6.88 11.2 14.64-3.5.85-7.3 1.36-11.2 1.5zM57.7 18.16c-1.6-4.74-3.72-8.76-6.21-11.81a35.58 35.58 0 0 1 13.49 8.39 34.03 34.03 0 0 1-7.28 3.42zm17.76 24.05c-.15 2.4-.57 4.78-1.18 7.12a5.04 5.04 0 0 0-.96-.09H60.46c.28-2.31.46-4.66.53-7.03zm-14.47-4.45a71.23 71.23 0 0 0-2.03-15.35 37.84 37.84 0 0 0 9.01-4.32 35.62 35.62 0 0 1 7.49 19.67zM40 0C17.95 0 0 17.93 0 39.98c0 3.92.58 7.77 1.7 11.5A6.64 6.64 0 0 0 0 55.9v17.39a6.67 6.67 0 0 0 6.66 6.66h66.65a6.67 6.67 0 0 0 6.66-6.66V55.9a6.7 6.7 0 0 0-1.7-4.42 39.54 39.54 0 0 0 1.71-11.5A40.02 40.02 0 0 0 40 0z"/><path fill="#161616" d="M22.51 66.67L20.04 59h-3.43l-2.48 7.67L11.66 59H8l4.32 12.72h3.66l2.36-6.94 2.34 6.94h3.67L28.67 59H25zM44.53 66.67L42.05 59h-3.42l-2.5 7.67L33.66 59H30l4.32 12.72h3.66l2.36-6.94 2.34 6.94h3.7L50.7 59H47zM65.51 66.67L63.04 59h-3.42l-2.48 7.67L54.67 59H51l4.31 12.72h3.67l2.36-6.94 2.34 6.94h3.68L71.69 59h-3.7z"/></svg>