<svg xmlns="http://www.w3.org/2000/svg" width="134" height="119" viewBox="0 0 134 119"><path fill="#7b98af" d="M59.8 29.21L31.86 14.2a1.6 1.6 0 0 0-1.56 0L2.87 28.94c-.54.29-.87.84-.87 1.45v83.49a1.65 1.65 0 0 0 2.43 1.46l25.87-13.9a1.6 1.6 0 0 1 1.56 0l27.94 15.01c.24.13.51.19.78.19h69.3c.91 0 1.65-.73 1.65-1.65V31.05c0-.91-.74-1.65-1.65-1.65h-69.3c-.27 0-.54-.06-.78-.19"/><path fill="#8fc148" d="M60.66 37.53L31.85 22.05a.35.35 0 0 0-.37 0L11.2 32.94a.4.4 0 0 0-.2.34v69.55c0 .29.31.48.57.34l19.91-10.7a.4.4 0 0 1 .37 0l28.81 15.48a.4.4 0 0 0 .18.05h62.47a.4.4 0 0 0 .39-.39V37.96a.39.39 0 0 0-.39-.38H60.84a.4.4 0 0 1-.18-.05"/><path fill="#fff" d="M123.7 62.37l-17.16 17.14H80.46V38.24h-8.42v41.27H60.75l-10.34-5.75V45.08L31.66 35 11 46.11v9.54l20.66-11.1L42 50.1v18.97l-10.34-5.76L11 74.42v9.55l20.66-11.11 29.09 15.06h37.37l-20.76 20.75h11.9l19.02-19.01 15.42 15.4V93.17l-9.46-9.46 9.46-9.45z"/><path fill="#ff6361" d="M103.86 68.6c3.44 0 23.86-24.92 23.86-42.76a23.85 23.85 0 0 0-47.72 0c0 17.84 20.41 42.76 23.86 42.76"/><path fill="#fff" d="M103.43 18a8.43 8.43 0 1 1 .01 16.87 8.43 8.43 0 0 1-.01-16.87"/><path fill="#7d8a6a" fill-opacity=".74" d="M59.72 29.21L31.78 14.2c-.24-.13-.51-.2-.78-.2v87.24c.27 0 .54.06.78.2l27.94 15.01c.11.06.23.11.36.14V29.35a1.42 1.42 0 0 1-.36-.14"/><path fill="#0f0f0f" d="M103.51 19.61a6.33 6.33 0 1 0 0 0zm0 16.86a10.55 10.55 0 0 1-10.54-10.53 10.55 10.55 0 0 1 21.08 0c0 5.8-4.73 10.53-10.54 10.53zm26.02-4.93h-.61a51.39 51.39 0 0 1-3.6 11.16v65.18a2.49 2.49 0 0 1-2.49 2.49H60.36c-.41 0-.81-.1-1.18-.3L31.19 95.03l-19.1 10.26a2.5 2.5 0 0 1-2.46-.06 2.48 2.48 0 0 1-1.21-2.13V33.55c0-.91.5-1.75 1.31-2.19l20.28-10.89c.73-.4 1.62-.4 2.35-.01L60.8 35.74h18.32c-.41-1.39-.76-2.8-1.02-4.2H60.68c-.62 0-1.23-.16-1.78-.45L31.19 16.2 4.21 30.69v82.47l25.2-13.54c1.11-.6 2.44-.6 3.55 0l27.84 14.95h68.73zm-41 23.62a84.78 84.78 0 0 1-7.97-15.21h-20.2c-.41 0-.81-.1-1.17-.3l-28-15.04-18.57 9.97v65.65l17.39-9.34c.73-.4 1.62-.4 2.35 0l28.44 15.28h60.31V50.92a87.4 87.4 0 0 1-2.62 4.24 85.14 85.14 0 0 1-8.25 10.79c-4.45 4.86-6.05 4.86-6.73 4.86-.68 0-2.28 0-6.73-4.86a85.14 85.14 0 0 1-8.25-10.79zM103.51 4.2c-12 0-21.75 9.75-21.75 21.74 0 9.41 6.1 20.36 9.73 26.06 5.49 8.6 10.44 13.48 12.02 14.48 1.58-1 6.53-5.88 12.02-14.48 3.64-5.7 9.73-16.65 9.73-26.06A21.76 21.76 0 0 0 103.51 4.2zm26.47 23.14a3.76 3.76 0 0 1 3.76 3.75v83.94a3.77 3.77 0 0 1-3.76 3.75h-69.3c-.62 0-1.23-.16-1.78-.45l-27.71-14.9-25.66 13.79c-1.17.63-2.56.6-3.7-.08A3.72 3.72 0 0 1 0 113.92v-83.5c0-1.38.76-2.65 1.98-3.3l27.43-14.74c1.11-.6 2.44-.6 3.55 0L60.8 27.34h16.79A25.98 25.98 0 0 1 103.51 0a25.98 25.98 0 0 1 25.92 27.34z"/></svg>