<?xml version="1.0" encoding="utf-8"?>
<!-- Generator: Adobe Illustrator 19.1.1, SVG Export Plug-In . SVG Version: 6.00 Build 0)  -->
<svg version="1.1" id="Layer_1" xmlns="http://www.w3.org/2000/svg" xmlns:xlink="http://www.w3.org/1999/xlink" x="0px" y="0px"
	 viewBox="0 2 30 28" style="enable-background:new 0 2 30 28;" xml:space="preserve">
<style type="text/css">
	.st0{fill:#262626;}
	.st1{fill:#FBC233;}
</style>
<path class="st0" d="M3.5,31C2.1,31,1,29.9,1,28.5L1,3.5C1,2.1,2.2,1,3.5,1C4.9,1,6,2.1,6,3.5L6,28.5C6,29.9,4.8,31,3.5,31z"/>
<path class="st1" d="M14.5,21c-1.4,0-2.5-1.1-2.5-2.5l0-15C12,2.1,13.2,1,14.5,1C15.9,1,17,2.1,17,3.5l0,15C17,19.9,15.9,21,14.5,21
	z M15,31c-1.7,0-3-1.3-3-3s1.3-3,3-3c1.7,0,3,1.3,3,3C18,29.7,16.6,31,15,31z"/>
<path class="st0" d="M26.5,31c-1.4,0-2.5-1.1-2.5-2.5l0.1-25C24,2.1,25.2,1,26.5,1C27.9,1,29,2.1,29,3.5l-0.1,25
	C29,29.9,27.8,31,26.5,31z"/>
</svg>
